<svg width="90" height="40" viewBox="0 0 90 40" fill="none" xmlns="http://www.w3.org/2000/svg">
<rect width="90" height="40" fill="white"/>
<path d="M35.792 35.5664C35.792 35.8047 35.79 36.043 35.7861 36.2812C35.7822 36.5195 35.7725 36.7578 35.7568 36.9961C35.7432 37.2324 35.7227 37.4688 35.6953 37.7051C35.668 37.9414 35.6318 38.1777 35.5869 38.4141L35.54 38.6484C35.5459 38.6621 35.5557 38.6846 35.5693 38.7158C35.585 38.7451 35.6006 38.7773 35.6162 38.8125C35.6318 38.8457 35.6455 38.877 35.6572 38.9062C35.6689 38.9355 35.6748 38.9551 35.6748 38.9648C35.6748 38.9902 35.6641 39.0098 35.6426 39.0234C35.623 39.0371 35.5996 39.0469 35.5723 39.0527C35.5449 39.0605 35.5166 39.0654 35.4873 39.0674C35.458 39.0693 35.4346 39.0703 35.417 39.0703C35.3955 39.0703 35.375 39.0693 35.3555 39.0674C35.3359 39.0674 35.3174 39.0645 35.2998 39.0586C35.2549 39.043 35.2246 39.0254 35.209 39.0059C35.1934 38.9863 35.1748 38.957 35.1533 38.918C35.0713 38.7617 34.999 38.6006 34.9365 38.4346C34.876 38.2666 34.8223 38.0967 34.7754 37.9248C34.7285 37.751 34.6865 37.5771 34.6494 37.4033C34.6123 37.2275 34.5771 37.0527 34.5439 36.8789C34.4736 37.5234 34.3623 38.1621 34.21 38.7949C34.2275 38.8301 34.2471 38.8691 34.2686 38.9121C34.292 38.9531 34.3037 38.9941 34.3037 39.0352C34.3037 39.0625 34.2949 39.084 34.2773 39.0996C34.2598 39.1152 34.2373 39.126 34.21 39.1318C34.1846 39.1377 34.1572 39.1406 34.1279 39.1406C34.1006 39.1426 34.0771 39.1426 34.0576 39.1406C34.0518 39.1445 34.0459 39.1475 34.04 39.1494C34.0342 39.1514 34.0264 39.1523 34.0166 39.1523C33.9482 39.1523 33.8936 39.1318 33.8525 39.0908C33.8135 39.0498 33.7822 39 33.7588 38.9414C33.6904 38.7637 33.6299 38.5752 33.5771 38.376C33.5244 38.1768 33.4785 37.9746 33.4395 37.7695C33.4004 37.5645 33.3662 37.3604 33.3369 37.1572C33.3096 36.9521 33.2861 36.7539 33.2666 36.5625C33.2393 36.3301 33.2129 36.0986 33.1875 35.8682C33.1621 35.6377 33.1494 35.4043 33.1494 35.168C33.1494 35.127 33.1553 35.0957 33.167 35.0742C33.1787 35.0508 33.208 35.0391 33.2549 35.0391C33.3271 35.0391 33.3828 35.0508 33.4219 35.0742C33.4629 35.0957 33.4932 35.126 33.5127 35.165C33.5342 35.2021 33.5479 35.2461 33.5537 35.2969C33.5615 35.3477 33.5674 35.4023 33.5713 35.4609C33.6104 35.8945 33.6582 36.3262 33.7148 36.7559C33.7715 37.1855 33.8525 37.6113 33.958 38.0332C34.0107 37.7617 34.0508 37.4902 34.0781 37.2188C34.1074 36.9453 34.1357 36.6719 34.1631 36.3984C34.1689 36.3262 34.1729 36.2529 34.1748 36.1787C34.1768 36.1045 34.1797 36.0303 34.1836 35.9561C34.1895 35.8799 34.1963 35.8047 34.2041 35.7305C34.2139 35.6562 34.2295 35.584 34.251 35.5137C34.2686 35.4512 34.2969 35.4033 34.3359 35.3701C34.375 35.3369 34.4287 35.3203 34.4971 35.3203C34.5635 35.3203 34.6152 35.335 34.6523 35.3643C34.6895 35.3936 34.7178 35.4307 34.7373 35.4756C34.7588 35.5186 34.7734 35.5674 34.7812 35.6221C34.7891 35.6768 34.7959 35.7285 34.8018 35.7773C34.8486 36.1309 34.9092 36.4805 34.9834 36.8262C35.0596 37.1719 35.1494 37.5156 35.2529 37.8574C35.292 37.5547 35.3164 37.2529 35.3262 36.9521C35.3359 36.6514 35.3408 36.3477 35.3408 36.041C35.3408 35.8672 35.3389 35.6924 35.335 35.5166C35.333 35.3408 35.3213 35.1641 35.2998 34.9863C35.2998 34.9648 35.2979 34.9453 35.2939 34.9277C35.29 34.9102 35.2881 34.8906 35.2881 34.8691C35.2881 34.8281 35.3008 34.7988 35.3262 34.7812C35.3516 34.7617 35.3838 34.752 35.4229 34.752C35.4482 34.752 35.4756 34.7549 35.5049 34.7607C35.5361 34.7646 35.5664 34.7715 35.5957 34.7812C35.627 34.7891 35.6553 34.7998 35.6807 34.8135C35.708 34.8271 35.7295 34.8438 35.7451 34.8633C35.7529 34.873 35.7588 34.8945 35.7627 34.9277C35.7686 34.9609 35.7734 35.001 35.7773 35.0479C35.7812 35.0947 35.7842 35.1445 35.7861 35.1973C35.7881 35.25 35.7891 35.3008 35.7891 35.3496C35.791 35.3984 35.792 35.4424 35.792 35.4814C35.792 35.5205 35.792 35.5488 35.792 35.5664ZM37.2246 38.4639C37.2246 38.5225 37.208 38.583 37.1748 38.6455C37.1436 38.708 37.1025 38.7656 37.0518 38.8184C37.001 38.8691 36.9424 38.9111 36.876 38.9443C36.8115 38.9775 36.7471 38.9941 36.6826 38.9941C36.5908 38.9941 36.5117 38.9766 36.4453 38.9414C36.3789 38.9043 36.3213 38.8555 36.2725 38.7949C36.2236 38.7324 36.1836 38.6621 36.1523 38.584C36.123 38.5059 36.0996 38.4258 36.082 38.3438C36.0645 38.2598 36.0518 38.1768 36.0439 38.0947C36.0381 38.0107 36.0352 37.9346 36.0352 37.8662C36.0352 37.8076 36.0381 37.7383 36.0439 37.6582C36.0518 37.5781 36.0635 37.4951 36.0791 37.4092C36.0967 37.3232 36.1201 37.2383 36.1494 37.1543C36.1787 37.0703 36.2148 36.9951 36.2578 36.9287C36.3027 36.8623 36.3555 36.8086 36.416 36.7676C36.4785 36.7266 36.5498 36.7061 36.6299 36.7061C36.6924 36.7061 36.748 36.7188 36.7969 36.7441C36.8477 36.7695 36.8896 36.8037 36.9229 36.8467C36.958 36.8877 36.9844 36.9355 37.002 36.9902C37.0215 37.0449 37.0312 37.1016 37.0312 37.1602C37.0312 37.2363 37.0137 37.3193 36.9785 37.4092C36.9434 37.499 36.8975 37.5859 36.8408 37.6699C36.7861 37.7539 36.7236 37.8301 36.6533 37.8984C36.585 37.9648 36.5166 38.0156 36.4482 38.0508C36.4521 38.0859 36.46 38.1377 36.4717 38.2061C36.4834 38.2725 36.499 38.3389 36.5186 38.4053C36.54 38.4717 36.5645 38.5293 36.5918 38.5781C36.6211 38.627 36.6553 38.6514 36.6943 38.6514C36.7139 38.6514 36.7305 38.6455 36.7441 38.6338C36.7598 38.6221 36.7734 38.6064 36.7852 38.5869C36.7969 38.5674 36.8066 38.5459 36.8145 38.5225C36.8242 38.499 36.833 38.4766 36.8408 38.4551L36.8584 38.4141C36.8623 38.4082 36.8643 38.4043 36.8643 38.4023C36.8662 38.4004 36.8682 38.3975 36.8701 38.3936C36.8838 38.3682 36.8965 38.3447 36.9082 38.3232C36.9219 38.3018 36.9404 38.2832 36.9639 38.2676H36.9609C36.9688 38.2598 36.9766 38.2559 36.9844 38.2559C36.9941 38.2539 37.0029 38.2529 37.0107 38.2529C37.0322 38.2529 37.0557 38.2598 37.0811 38.2734C37.1064 38.2871 37.1299 38.3047 37.1514 38.3262C37.1729 38.3457 37.1904 38.3682 37.2041 38.3936C37.2178 38.417 37.2246 38.4404 37.2246 38.4639ZM36.6445 37.1719C36.6445 37.1523 36.6436 37.1318 36.6416 37.1104C36.6396 37.0889 36.6348 37.0703 36.627 37.0547C36.5996 37.0879 36.5752 37.1279 36.5537 37.1748C36.5342 37.2197 36.5176 37.2676 36.5039 37.3184C36.4902 37.3672 36.4785 37.417 36.4688 37.4678C36.4609 37.5186 36.4551 37.5654 36.4512 37.6084C36.502 37.5479 36.5469 37.4795 36.5859 37.4033C36.625 37.3252 36.6445 37.248 36.6445 37.1719ZM39.2812 37.8516C39.2812 38.0801 39.2441 38.2793 39.1699 38.4492C39.0977 38.6191 38.9961 38.7607 38.8652 38.874C38.7344 38.9873 38.5781 39.0713 38.3965 39.126C38.2168 39.1826 38.0195 39.2109 37.8047 39.2109H37.7051C37.6855 39.2109 37.6562 39.21 37.6172 39.208C37.5781 39.208 37.5381 39.2041 37.4971 39.1963C37.458 39.1904 37.4229 39.1797 37.3916 39.1641C37.3623 39.1484 37.3477 39.127 37.3477 39.0996C37.3477 39.0684 37.3545 39.0371 37.3682 39.0059C37.3838 38.9766 37.4033 38.9502 37.4268 38.9268C37.4502 38.9014 37.4766 38.8809 37.5059 38.8652C37.5352 38.8477 37.5645 38.8359 37.5938 38.8301C37.5781 38.8105 37.5664 38.7842 37.5586 38.751C37.5508 38.7178 37.5439 38.6826 37.5381 38.6455C37.5322 38.6084 37.5273 38.5723 37.5234 38.5371C37.5215 38.5 37.5195 38.4688 37.5176 38.4434C37.4824 38.1406 37.4521 37.8389 37.4268 37.5381C37.4014 37.2373 37.3887 36.9336 37.3887 36.627C37.3887 36.4316 37.3916 36.2383 37.3975 36.0469C37.4033 35.8555 37.4082 35.6621 37.4121 35.4668C37.416 35.3867 37.417 35.3076 37.415 35.2295C37.415 35.1514 37.418 35.0723 37.4238 34.9922C37.4121 34.9961 37.3994 34.998 37.3857 34.998C37.3721 34.998 37.3574 34.998 37.3418 34.998C37.3125 34.998 37.2832 34.9932 37.2539 34.9834C37.2266 34.9717 37.2129 34.9453 37.2129 34.9043C37.2129 34.8535 37.2236 34.8125 37.2451 34.7812C37.2666 34.75 37.2939 34.7266 37.3271 34.7109C37.3604 34.6934 37.3975 34.6826 37.4385 34.6787C37.4814 34.6729 37.5234 34.6699 37.5645 34.6699C37.752 34.6699 37.9336 34.6934 38.1094 34.7402C38.2852 34.7871 38.4404 34.8594 38.5752 34.957C38.71 35.0547 38.8184 35.1797 38.9004 35.332C38.9824 35.4824 39.0234 35.6621 39.0234 35.8711C39.0234 36.043 38.9922 36.207 38.9297 36.3633C38.8672 36.5195 38.7754 36.6582 38.6543 36.7793C38.7637 36.8262 38.8574 36.8877 38.9355 36.9639C39.0156 37.0381 39.0811 37.1221 39.1318 37.2158C39.1826 37.3096 39.2197 37.4111 39.2432 37.5205C39.2686 37.6279 39.2812 37.7383 39.2812 37.8516ZM38.5781 35.8301C38.5781 35.7129 38.5596 35.6094 38.5225 35.5195C38.4854 35.4277 38.4336 35.3486 38.3672 35.2822C38.3008 35.2139 38.2217 35.1592 38.1299 35.1182C38.0381 35.0752 37.9375 35.043 37.8281 35.0215C37.832 35.0312 37.834 35.04 37.834 35.0479C37.834 35.0557 37.834 35.0625 37.834 35.0684C37.834 35.2539 37.832 35.4375 37.8281 35.6191C37.8242 35.7988 37.8223 35.9805 37.8223 36.1641V36.4688C37.8223 36.5078 37.8232 36.5479 37.8252 36.5889C37.8271 36.6279 37.8281 36.668 37.8281 36.709C37.8789 36.6875 37.9297 36.6768 37.9805 36.6768C38.0332 36.6748 38.0859 36.6738 38.1387 36.6738C38.2852 36.582 38.3945 36.4619 38.4668 36.3135C38.541 36.1631 38.5781 36.002 38.5781 35.8301ZM38.8418 37.8457C38.8418 37.752 38.833 37.6611 38.8154 37.5732C38.7998 37.4854 38.7715 37.4053 38.7305 37.333C38.6895 37.2588 38.6357 37.1953 38.5693 37.1426C38.5029 37.0898 38.4199 37.0508 38.3203 37.0254C38.1719 37.1094 38.0137 37.166 37.8457 37.1953C37.8613 37.416 37.8799 37.6367 37.9014 37.8574C37.9248 38.0762 37.957 38.2949 37.998 38.5137C38.0078 38.5645 38.0186 38.6152 38.0303 38.666C38.0439 38.7148 38.0527 38.7656 38.0566 38.8184C38.1875 38.8008 38.3018 38.7646 38.3994 38.71C38.499 38.6533 38.5811 38.583 38.6455 38.499C38.7119 38.4131 38.7607 38.3145 38.792 38.2031C38.8252 38.0918 38.8418 37.9727 38.8418 37.8457ZM42.4893 36.9023C42.4893 37.1113 42.4707 37.3174 42.4336 37.5205C42.3965 37.7217 42.335 37.9102 42.249 38.0859C42.165 38.2617 42.0537 38.4219 41.915 38.5664C41.7764 38.709 41.6064 38.8262 41.4053 38.918C41.3545 38.9414 41.2988 38.9629 41.2383 38.9824C41.1797 39.002 41.1182 39.0186 41.0537 39.0322C40.9912 39.0459 40.9287 39.0566 40.8662 39.0645C40.8037 39.0723 40.7451 39.0762 40.6904 39.0762C40.6689 39.0762 40.6445 39.0752 40.6172 39.0732C40.5918 39.0732 40.5674 39.0693 40.5439 39.0615C40.5205 39.0557 40.501 39.0449 40.4854 39.0293C40.4697 39.0137 40.4619 38.9922 40.4619 38.9648C40.4619 38.9414 40.4668 38.917 40.4766 38.8916C40.4863 38.8662 40.499 38.8418 40.5146 38.8184C40.5322 38.7949 40.5508 38.7744 40.5703 38.7568C40.5898 38.7373 40.6104 38.7227 40.6318 38.7129C40.6221 38.6973 40.6123 38.6533 40.6025 38.5811C40.5947 38.5088 40.5869 38.417 40.5791 38.3057C40.5732 38.1943 40.5674 38.0703 40.5615 37.9336C40.5557 37.7949 40.5498 37.6523 40.5439 37.5059C40.54 37.3594 40.5361 37.2139 40.5322 37.0693C40.5303 36.9229 40.5283 36.7881 40.5264 36.665C40.5244 36.542 40.5225 36.4355 40.5205 36.3457C40.5205 36.2539 40.5205 36.1875 40.5205 36.1465C40.5205 35.9629 40.5234 35.7822 40.5293 35.6045C40.5352 35.4268 40.5381 35.2461 40.5381 35.0625C40.5166 35.0625 40.4961 35.0566 40.4766 35.0449C40.459 35.0332 40.4502 35.0156 40.4502 34.9922C40.4502 34.9609 40.458 34.9326 40.4736 34.9072C40.4893 34.8799 40.5088 34.8564 40.5322 34.8369C40.5576 34.8174 40.585 34.8027 40.6143 34.793C40.6455 34.7812 40.6748 34.7754 40.7021 34.7754C40.7295 34.7754 40.7559 34.7783 40.7812 34.7842C40.8066 34.7881 40.833 34.793 40.8604 34.7988C41.1201 34.8613 41.3516 34.9561 41.5547 35.083C41.7578 35.21 41.9277 35.3643 42.0645 35.5459C42.2031 35.7275 42.3086 35.9326 42.3809 36.1611C42.4531 36.3896 42.4893 36.6367 42.4893 36.9023ZM42.0557 36.8496C42.0557 36.6543 42.0322 36.4707 41.9854 36.2988C41.9385 36.125 41.8682 35.9668 41.7744 35.8242C41.6826 35.6797 41.5664 35.5527 41.4258 35.4434C41.2871 35.332 41.126 35.2402 40.9424 35.168V35.1797C40.9424 35.6836 40.9502 36.1836 40.9658 36.6797C40.9834 37.1738 41.0088 37.6719 41.042 38.1738C41.0479 38.25 41.0527 38.3262 41.0566 38.4023C41.0625 38.4766 41.0713 38.5508 41.083 38.625C41.2666 38.5645 41.4209 38.4707 41.5459 38.3438C41.6709 38.2168 41.7705 38.0723 41.8447 37.9102C41.9209 37.7461 41.9746 37.5723 42.0059 37.3887C42.0391 37.2031 42.0557 37.0234 42.0557 36.8496ZM43.793 38.4639C43.793 38.5225 43.7764 38.583 43.7432 38.6455C43.7119 38.708 43.6709 38.7656 43.6201 38.8184C43.5693 38.8691 43.5107 38.9111 43.4443 38.9443C43.3799 38.9775 43.3154 38.9941 43.251 38.9941C43.1592 38.9941 43.0801 38.9766 43.0137 38.9414C42.9473 38.9043 42.8896 38.8555 42.8408 38.7949C42.792 38.7324 42.752 38.6621 42.7207 38.584C42.6914 38.5059 42.668 38.4258 42.6504 38.3438C42.6328 38.2598 42.6201 38.1768 42.6123 38.0947C42.6064 38.0107 42.6035 37.9346 42.6035 37.8662C42.6035 37.8076 42.6064 37.7383 42.6123 37.6582C42.6201 37.5781 42.6318 37.4951 42.6475 37.4092C42.665 37.3232 42.6885 37.2383 42.7178 37.1543C42.7471 37.0703 42.7832 36.9951 42.8262 36.9287C42.8711 36.8623 42.9238 36.8086 42.9844 36.7676C43.0469 36.7266 43.1182 36.7061 43.1982 36.7061C43.2607 36.7061 43.3164 36.7188 43.3652 36.7441C43.416 36.7695 43.458 36.8037 43.4912 36.8467C43.5264 36.8877 43.5527 36.9355 43.5703 36.9902C43.5898 37.0449 43.5996 37.1016 43.5996 37.1602C43.5996 37.2363 43.582 37.3193 43.5469 37.4092C43.5117 37.499 43.4658 37.5859 43.4092 37.6699C43.3545 37.7539 43.292 37.8301 43.2217 37.8984C43.1533 37.9648 43.085 38.0156 43.0166 38.0508C43.0205 38.0859 43.0283 38.1377 43.04 38.2061C43.0518 38.2725 43.0674 38.3389 43.0869 38.4053C43.1084 38.4717 43.1328 38.5293 43.1602 38.5781C43.1895 38.627 43.2236 38.6514 43.2627 38.6514C43.2822 38.6514 43.2988 38.6455 43.3125 38.6338C43.3281 38.6221 43.3418 38.6064 43.3535 38.5869C43.3652 38.5674 43.375 38.5459 43.3828 38.5225C43.3926 38.499 43.4014 38.4766 43.4092 38.4551L43.4268 38.4141C43.4307 38.4082 43.4326 38.4043 43.4326 38.4023C43.4346 38.4004 43.4365 38.3975 43.4385 38.3936C43.4521 38.3682 43.4648 38.3447 43.4766 38.3232C43.4902 38.3018 43.5088 38.2832 43.5322 38.2676H43.5293C43.5371 38.2598 43.5449 38.2559 43.5527 38.2559C43.5625 38.2539 43.5713 38.2529 43.5791 38.2529C43.6006 38.2529 43.624 38.2598 43.6494 38.2734C43.6748 38.2871 43.6982 38.3047 43.7197 38.3262C43.7412 38.3457 43.7588 38.3682 43.7725 38.3936C43.7861 38.417 43.793 38.4404 43.793 38.4639ZM43.2129 37.1719C43.2129 37.1523 43.2119 37.1318 43.21 37.1104C43.208 37.0889 43.2031 37.0703 43.1953 37.0547C43.168 37.0879 43.1436 37.1279 43.1221 37.1748C43.1025 37.2197 43.0859 37.2676 43.0723 37.3184C43.0586 37.3672 43.0469 37.417 43.0371 37.4678C43.0293 37.5186 43.0234 37.5654 43.0195 37.6084C43.0703 37.5479 43.1152 37.4795 43.1543 37.4033C43.1934 37.3252 43.2129 37.248 43.2129 37.1719ZM45.4014 36.0762C45.4014 36.5391 45.3623 36.9961 45.2842 37.4473C45.208 37.8965 45.0791 38.3359 44.8975 38.7656C44.9033 38.7793 44.9121 38.7988 44.9238 38.8242C44.9355 38.8496 44.9473 38.877 44.959 38.9062C44.9707 38.9336 44.9805 38.96 44.9883 38.9854C44.998 39.0107 45.0029 39.0293 45.0029 39.041C45.0029 39.0684 44.9951 39.0889 44.9795 39.1025C44.9639 39.1162 44.9443 39.126 44.9209 39.1318C44.8975 39.1377 44.873 39.1406 44.8477 39.1406C44.8242 39.1406 44.8037 39.1406 44.7861 39.1406C44.7354 39.1406 44.6904 39.1377 44.6514 39.1318C44.6123 39.126 44.5732 39.1055 44.5342 39.0703C44.5068 39.0469 44.4746 38.9883 44.4375 38.8945C44.4023 38.7988 44.3633 38.6807 44.3203 38.54C44.2773 38.3975 44.2324 38.2373 44.1855 38.0596C44.1406 37.8818 44.0947 37.6992 44.0479 37.5117C44.0029 37.3223 43.959 37.1348 43.916 36.9492C43.873 36.7617 43.833 36.5879 43.7959 36.4277C43.7607 36.2676 43.7295 36.126 43.7021 36.0029C43.6768 35.8799 43.6572 35.7891 43.6436 35.7305C43.6221 35.6309 43.5977 35.5322 43.5703 35.4346C43.5449 35.3369 43.5322 35.2363 43.5322 35.1328C43.5322 35.0977 43.5449 35.0752 43.5703 35.0654C43.5957 35.0557 43.6221 35.0508 43.6494 35.0508C43.7061 35.0508 43.7598 35.0605 43.8105 35.0801C43.8613 35.0996 43.9014 35.1328 43.9307 35.1797C43.9463 35.207 43.958 35.2441 43.9658 35.291C43.9756 35.3359 43.9834 35.373 43.9893 35.4023C44.0518 35.6875 44.1162 35.9717 44.1826 36.2549C44.249 36.5361 44.3193 36.8184 44.3936 37.1016C44.4404 37.2793 44.4863 37.4551 44.5312 37.6289C44.5781 37.8027 44.6299 37.9766 44.6865 38.1504C44.7842 37.8418 44.8535 37.5264 44.8945 37.2041C44.9355 36.8818 44.9561 36.5586 44.9561 36.2344C44.9561 36.1836 44.9551 36.1201 44.9531 36.0439C44.9531 35.9678 44.9521 35.8867 44.9502 35.8008C44.9482 35.7129 44.9443 35.623 44.9385 35.5312C44.9346 35.4395 44.9287 35.3516 44.9209 35.2676C44.9131 35.1836 44.9023 35.1064 44.8887 35.0361C44.877 34.9639 44.8623 34.9062 44.8447 34.8633C44.8389 34.8477 44.832 34.834 44.8242 34.8223C44.8184 34.8086 44.8154 34.793 44.8154 34.7754C44.8154 34.752 44.8242 34.7334 44.8418 34.7197C44.8594 34.7061 44.8799 34.6953 44.9033 34.6875C44.9268 34.6797 44.9512 34.6748 44.9766 34.6729C45.002 34.6709 45.0225 34.6699 45.0381 34.6699C45.0908 34.6699 45.1367 34.6758 45.1758 34.6875C45.2168 34.6973 45.2568 34.7227 45.2959 34.7637C45.3135 34.7812 45.3281 34.8213 45.3398 34.8838C45.3516 34.9463 45.3613 35.0205 45.3691 35.1064C45.377 35.1924 45.3828 35.2852 45.3867 35.3848C45.3926 35.4824 45.3965 35.5771 45.3984 35.6689C45.4004 35.7607 45.4014 35.8428 45.4014 35.915C45.4014 35.9873 45.4014 36.041 45.4014 36.0762ZM46.7754 38.4639C46.7754 38.5225 46.7588 38.583 46.7256 38.6455C46.6943 38.708 46.6533 38.7656 46.6025 38.8184C46.5518 38.8691 46.4932 38.9111 46.4268 38.9443C46.3623 38.9775 46.2979 38.9941 46.2334 38.9941C46.1416 38.9941 46.0625 38.9766 45.9961 38.9414C45.9297 38.9043 45.8721 38.8555 45.8232 38.7949C45.7744 38.7324 45.7344 38.6621 45.7031 38.584C45.6738 38.5059 45.6504 38.4258 45.6328 38.3438C45.6152 38.2598 45.6025 38.1768 45.5947 38.0947C45.5889 38.0107 45.5859 37.9346 45.5859 37.8662C45.5859 37.8076 45.5889 37.7383 45.5947 37.6582C45.6025 37.5781 45.6143 37.4951 45.6299 37.4092C45.6475 37.3232 45.6709 37.2383 45.7002 37.1543C45.7295 37.0703 45.7656 36.9951 45.8086 36.9287C45.8535 36.8623 45.9062 36.8086 45.9668 36.7676C46.0293 36.7266 46.1006 36.7061 46.1807 36.7061C46.2432 36.7061 46.2988 36.7188 46.3477 36.7441C46.3984 36.7695 46.4404 36.8037 46.4736 36.8467C46.5088 36.8877 46.5352 36.9355 46.5527 36.9902C46.5723 37.0449 46.582 37.1016 46.582 37.1602C46.582 37.2363 46.5645 37.3193 46.5293 37.4092C46.4941 37.499 46.4482 37.5859 46.3916 37.6699C46.3369 37.7539 46.2744 37.8301 46.2041 37.8984C46.1357 37.9648 46.0674 38.0156 45.999 38.0508C46.0029 38.0859 46.0107 38.1377 46.0225 38.2061C46.0342 38.2725 46.0498 38.3389 46.0693 38.4053C46.0908 38.4717 46.1152 38.5293 46.1426 38.5781C46.1719 38.627 46.2061 38.6514 46.2451 38.6514C46.2646 38.6514 46.2812 38.6455 46.2949 38.6338C46.3105 38.6221 46.3242 38.6064 46.3359 38.5869C46.3477 38.5674 46.3574 38.5459 46.3652 38.5225C46.375 38.499 46.3838 38.4766 46.3916 38.4551L46.4092 38.4141C46.4131 38.4082 46.415 38.4043 46.415 38.4023C46.417 38.4004 46.4189 38.3975 46.4209 38.3936C46.4346 38.3682 46.4473 38.3447 46.459 38.3232C46.4727 38.3018 46.4912 38.2832 46.5146 38.2676H46.5117C46.5195 38.2598 46.5273 38.2559 46.5352 38.2559C46.5449 38.2539 46.5537 38.2529 46.5615 38.2529C46.583 38.2529 46.6064 38.2598 46.6318 38.2734C46.6572 38.2871 46.6807 38.3047 46.7021 38.3262C46.7236 38.3457 46.7412 38.3682 46.7549 38.3936C46.7686 38.417 46.7754 38.4404 46.7754 38.4639ZM46.1953 37.1719C46.1953 37.1523 46.1943 37.1318 46.1924 37.1104C46.1904 37.0889 46.1855 37.0703 46.1777 37.0547C46.1504 37.0879 46.126 37.1279 46.1045 37.1748C46.085 37.2197 46.0684 37.2676 46.0547 37.3184C46.041 37.3672 46.0293 37.417 46.0195 37.4678C46.0117 37.5186 46.0059 37.5654 46.002 37.6084C46.0527 37.5479 46.0977 37.4795 46.1367 37.4033C46.1758 37.3252 46.1953 37.248 46.1953 37.1719ZM48.6123 38.5723C48.6123 38.6172 48.5879 38.6602 48.5391 38.7012C48.4922 38.7422 48.4307 38.7803 48.3545 38.8154C48.2803 38.8486 48.1973 38.8799 48.1055 38.9092C48.0156 38.9365 47.9268 38.96 47.8389 38.9795C47.7529 38.999 47.6738 39.0137 47.6016 39.0234C47.5293 39.0352 47.4756 39.041 47.4404 39.041C47.374 39.041 47.3125 39.0332 47.2559 39.0176C47.2012 39.002 47.1533 38.9785 47.1123 38.9473C47.0713 38.9141 47.0391 38.8721 47.0156 38.8213C46.9941 38.7705 46.9834 38.709 46.9834 38.6367C46.9834 38.1152 46.9854 37.5957 46.9893 37.0781C46.9932 36.5605 46.9951 36.0391 46.9951 35.5137C46.9951 35.4316 46.9932 35.3506 46.9893 35.2705C46.9854 35.1904 46.9834 35.1094 46.9834 35.0273C46.9834 35.0078 46.9844 34.9854 46.9863 34.96C46.9883 34.9326 46.9932 34.9082 47.001 34.8867C47.0088 34.8633 47.0205 34.8438 47.0361 34.8281C47.0518 34.8125 47.0732 34.8047 47.1006 34.8047C47.1279 34.8047 47.1562 34.8086 47.1855 34.8164C47.2168 34.8242 47.2451 34.8359 47.2705 34.8516C47.2979 34.8672 47.3213 34.8867 47.3408 34.9102C47.3623 34.9316 47.3779 34.957 47.3877 34.9863C47.3975 35.0215 47.4014 35.0596 47.3994 35.1006C47.3994 35.1396 47.3994 35.1797 47.3994 35.2207C47.4092 35.7402 47.416 36.2559 47.4199 36.7676C47.4258 37.2793 47.4287 37.7949 47.4287 38.3145C47.4287 38.373 47.4287 38.4316 47.4287 38.4902C47.4307 38.5488 47.4346 38.6074 47.4404 38.666C47.4932 38.6641 47.5576 38.6553 47.6338 38.6396C47.71 38.624 47.7861 38.6045 47.8623 38.5811C47.9404 38.5557 48.0137 38.5273 48.082 38.4961C48.1504 38.4648 48.2041 38.4316 48.2432 38.3965C48.2607 38.3789 48.2793 38.3613 48.2988 38.3438C48.3184 38.3242 48.3428 38.3145 48.3721 38.3145C48.3975 38.3145 48.4238 38.3232 48.4512 38.3408C48.4805 38.3584 48.5068 38.3809 48.5303 38.4082C48.5537 38.4336 48.5732 38.4609 48.5889 38.4902C48.6045 38.5195 48.6123 38.5469 48.6123 38.5723ZM50.5869 36.75C50.5869 36.832 50.585 36.9277 50.5811 37.0371C50.5791 37.1445 50.5723 37.2598 50.5605 37.3828C50.5508 37.5059 50.5352 37.6318 50.5137 37.7607C50.4941 37.8896 50.4678 38.0156 50.4346 38.1387C50.4014 38.2617 50.3604 38.3779 50.3115 38.4873C50.2627 38.5967 50.2041 38.6924 50.1357 38.7744C50.0674 38.8564 49.9883 38.9219 49.8984 38.9707C49.8086 39.0176 49.7061 39.041 49.5908 39.041C49.4756 39.041 49.3711 39.0146 49.2773 38.9619C49.1836 38.9072 49.1045 38.8359 49.04 38.748C48.9873 38.6777 48.9404 38.5918 48.8994 38.4902C48.8604 38.3867 48.8252 38.2744 48.7939 38.1533C48.7646 38.0322 48.7393 37.9062 48.7178 37.7754C48.6963 37.6445 48.6787 37.5156 48.665 37.3887C48.6533 37.2617 48.6445 37.1416 48.6387 37.0283C48.6328 36.9131 48.6299 36.8125 48.6299 36.7266C48.6299 36.582 48.6357 36.4307 48.6475 36.2725C48.6611 36.1143 48.6855 35.958 48.7207 35.8037C48.7559 35.6475 48.8037 35.4971 48.8643 35.3525C48.9248 35.208 49.0029 35.0781 49.0986 34.9629C49.1084 34.9512 49.1201 34.9375 49.1338 34.9219C49.1494 34.9062 49.166 34.8916 49.1836 34.8779C49.2012 34.8623 49.2188 34.8496 49.2363 34.8398C49.2559 34.8281 49.2744 34.8223 49.292 34.8223C49.3096 34.8223 49.3262 34.8271 49.3418 34.8369C49.3594 34.8467 49.374 34.8594 49.3857 34.875C49.4268 34.8516 49.4697 34.835 49.5146 34.8252C49.5615 34.8154 49.6084 34.8105 49.6553 34.8105C49.7979 34.8105 49.9199 34.8447 50.0215 34.9131C50.125 34.9795 50.2109 35.0674 50.2793 35.1768C50.3477 35.2861 50.4023 35.4102 50.4434 35.5488C50.4844 35.6875 50.5156 35.8291 50.5371 35.9736C50.5586 36.1182 50.5723 36.2578 50.5781 36.3926C50.584 36.5273 50.5869 36.6465 50.5869 36.75ZM50.1299 36.8789C50.1299 36.8281 50.1279 36.751 50.124 36.6475C50.1221 36.542 50.1152 36.4268 50.1035 36.3018C50.0918 36.1748 50.0752 36.0449 50.0537 35.9121C50.0342 35.7793 50.0068 35.6592 49.9717 35.5518C49.9365 35.4424 49.8926 35.3535 49.8398 35.2852C49.7891 35.2148 49.7275 35.1797 49.6553 35.1797C49.626 35.1797 49.5996 35.1934 49.5762 35.2207C49.5527 35.248 49.5303 35.2832 49.5088 35.3262C49.4873 35.3691 49.4678 35.416 49.4502 35.4668C49.4326 35.5176 49.415 35.5664 49.3975 35.6133C49.3799 35.6602 49.3633 35.7021 49.3477 35.7393C49.332 35.7764 49.3154 35.8027 49.2979 35.8184C49.292 35.8242 49.2822 35.8281 49.2686 35.8301C49.2568 35.8301 49.2451 35.8301 49.2334 35.8301C49.2002 35.8301 49.1689 35.8242 49.1396 35.8125C49.1064 35.9453 49.083 36.0781 49.0693 36.2109C49.0576 36.3418 49.0518 36.4746 49.0518 36.6094C49.0518 36.6504 49.0537 36.7119 49.0576 36.7939C49.0615 36.876 49.0674 36.9697 49.0752 37.0752C49.083 37.1807 49.0938 37.2939 49.1074 37.415C49.1211 37.5361 49.1377 37.6572 49.1572 37.7783C49.1768 37.8975 49.1992 38.0127 49.2246 38.124C49.252 38.2334 49.2832 38.3311 49.3184 38.417C49.3535 38.501 49.3926 38.5684 49.4355 38.6191C49.4785 38.6699 49.5264 38.6953 49.5791 38.6953C49.6084 38.6953 49.6348 38.6875 49.6582 38.6719C49.6816 38.6543 49.7041 38.6367 49.7256 38.6191C49.7842 38.5664 49.835 38.4971 49.8779 38.4111C49.9209 38.3252 49.957 38.2305 49.9863 38.127C50.0156 38.0234 50.04 37.915 50.0596 37.8018C50.0791 37.6865 50.0938 37.5732 50.1035 37.4619C50.1133 37.3506 50.1201 37.2451 50.124 37.1455C50.1279 37.0439 50.1299 36.9551 50.1299 36.8789ZM52.8252 35.8477C52.8252 36.041 52.7939 36.2354 52.7314 36.4307C52.6709 36.626 52.585 36.8086 52.4736 36.9785C52.3643 37.1484 52.2324 37.2998 52.0781 37.4326C51.9238 37.5654 51.7549 37.666 51.5713 37.7344C51.583 37.8965 51.5967 38.0576 51.6123 38.2178C51.6279 38.3779 51.6494 38.5391 51.6768 38.7012C51.6826 38.7305 51.6885 38.7607 51.6943 38.792C51.7021 38.8232 51.7061 38.8555 51.7061 38.8887C51.7061 38.9395 51.6934 38.9736 51.668 38.9912C51.6426 39.0088 51.6064 39.0176 51.5596 39.0176C51.5264 39.0176 51.4863 39.0137 51.4395 39.0059C51.3926 38.998 51.3525 38.9863 51.3193 38.9707C51.2803 38.9492 51.2539 38.9277 51.2402 38.9062C51.2285 38.8828 51.2197 38.8516 51.2139 38.8125C51.1807 38.6465 51.1602 38.4805 51.1523 38.3145C51.1465 38.1484 51.1377 37.9824 51.126 37.8164C51.0869 37.8125 51.0547 37.8027 51.0293 37.7871C51.0039 37.7695 50.9912 37.7402 50.9912 37.6992C50.9912 37.6602 51.002 37.6191 51.0234 37.5762C51.0469 37.5332 51.0732 37.5 51.1025 37.4766C51.085 37.1133 51.0771 36.7529 51.0791 36.3955C51.083 36.0381 51.083 35.6777 51.0791 35.3145C51.0693 35.3184 51.0605 35.3213 51.0527 35.3232C51.0449 35.3252 51.0361 35.3262 51.0264 35.3262C51.0049 35.3262 50.9873 35.3213 50.9736 35.3115C50.96 35.2998 50.9482 35.2861 50.9385 35.2705C50.9307 35.2549 50.9248 35.2383 50.9209 35.2207C50.917 35.2012 50.915 35.1836 50.915 35.168C50.915 35.1094 50.9297 35.0674 50.959 35.042C50.9883 35.0146 51.0283 34.9902 51.0791 34.9688C51.0791 34.9473 51.0791 34.9229 51.0791 34.8955C51.0811 34.8662 51.085 34.8398 51.0908 34.8164C51.0986 34.791 51.1104 34.7705 51.126 34.7549C51.1416 34.7373 51.165 34.7285 51.1963 34.7285C51.2471 34.7285 51.2959 34.7383 51.3428 34.7578C51.3896 34.7773 51.4248 34.8105 51.4482 34.8574C51.5166 34.8457 51.583 34.835 51.6475 34.8252C51.7119 34.8154 51.7783 34.8105 51.8467 34.8105C52.001 34.8105 52.1387 34.8369 52.2598 34.8896C52.3809 34.9404 52.4834 35.0127 52.5674 35.1064C52.6514 35.1982 52.7148 35.3076 52.7578 35.4346C52.8027 35.5615 52.8252 35.6992 52.8252 35.8477ZM52.3857 35.7949C52.3857 35.7051 52.374 35.6211 52.3506 35.543C52.3271 35.4629 52.292 35.3945 52.2451 35.3379C52.1982 35.2793 52.1387 35.2334 52.0664 35.2002C51.9941 35.167 51.9092 35.1504 51.8115 35.1504C51.7588 35.1504 51.7051 35.1543 51.6504 35.1621C51.5977 35.1699 51.5459 35.1816 51.4951 35.1973C51.4951 35.5547 51.4971 35.9092 51.501 36.2607C51.5068 36.6123 51.5205 36.9648 51.542 37.3184C51.667 37.2539 51.7812 37.1641 51.8848 37.0488C51.9883 36.9336 52.0771 36.8066 52.1514 36.668C52.2256 36.5273 52.2832 36.3818 52.3242 36.2314C52.3652 36.0791 52.3857 35.9336 52.3857 35.7949ZM53.7832 38.4639C53.7832 38.5225 53.7666 38.583 53.7334 38.6455C53.7021 38.708 53.6611 38.7656 53.6104 38.8184C53.5596 38.8691 53.501 38.9111 53.4346 38.9443C53.3701 38.9775 53.3057 38.9941 53.2412 38.9941C53.1494 38.9941 53.0703 38.9766 53.0039 38.9414C52.9375 38.9043 52.8799 38.8555 52.8311 38.7949C52.7822 38.7324 52.7422 38.6621 52.7109 38.584C52.6816 38.5059 52.6582 38.4258 52.6406 38.3438C52.623 38.2598 52.6104 38.1768 52.6025 38.0947C52.5967 38.0107 52.5938 37.9346 52.5938 37.8662C52.5938 37.8076 52.5967 37.7383 52.6025 37.6582C52.6104 37.5781 52.6221 37.4951 52.6377 37.4092C52.6553 37.3232 52.6787 37.2383 52.708 37.1543C52.7373 37.0703 52.7734 36.9951 52.8164 36.9287C52.8613 36.8623 52.9141 36.8086 52.9746 36.7676C53.0371 36.7266 53.1084 36.7061 53.1885 36.7061C53.251 36.7061 53.3066 36.7188 53.3555 36.7441C53.4062 36.7695 53.4482 36.8037 53.4814 36.8467C53.5166 36.8877 53.543 36.9355 53.5605 36.9902C53.5801 37.0449 53.5898 37.1016 53.5898 37.1602C53.5898 37.2363 53.5723 37.3193 53.5371 37.4092C53.502 37.499 53.4561 37.5859 53.3994 37.6699C53.3447 37.7539 53.2822 37.8301 53.2119 37.8984C53.1436 37.9648 53.0752 38.0156 53.0068 38.0508C53.0107 38.0859 53.0186 38.1377 53.0303 38.2061C53.042 38.2725 53.0576 38.3389 53.0771 38.4053C53.0986 38.4717 53.123 38.5293 53.1504 38.5781C53.1797 38.627 53.2139 38.6514 53.2529 38.6514C53.2725 38.6514 53.2891 38.6455 53.3027 38.6338C53.3184 38.6221 53.332 38.6064 53.3438 38.5869C53.3555 38.5674 53.3652 38.5459 53.373 38.5225C53.3828 38.499 53.3916 38.4766 53.3994 38.4551L53.417 38.4141C53.4209 38.4082 53.4229 38.4043 53.4229 38.4023C53.4248 38.4004 53.4268 38.3975 53.4287 38.3936C53.4424 38.3682 53.4551 38.3447 53.4668 38.3232C53.4805 38.3018 53.499 38.2832 53.5225 38.2676H53.5195C53.5273 38.2598 53.5352 38.2559 53.543 38.2559C53.5527 38.2539 53.5615 38.2529 53.5693 38.2529C53.5908 38.2529 53.6143 38.2598 53.6396 38.2734C53.665 38.2871 53.6885 38.3047 53.71 38.3262C53.7314 38.3457 53.749 38.3682 53.7627 38.3936C53.7764 38.417 53.7832 38.4404 53.7832 38.4639ZM53.2031 37.1719C53.2031 37.1523 53.2021 37.1318 53.2002 37.1104C53.1982 37.0889 53.1934 37.0703 53.1855 37.0547C53.1582 37.0879 53.1338 37.1279 53.1123 37.1748C53.0928 37.2197 53.0762 37.2676 53.0625 37.3184C53.0488 37.3672 53.0371 37.417 53.0273 37.4678C53.0195 37.5186 53.0137 37.5654 53.0098 37.6084C53.0605 37.5479 53.1055 37.4795 53.1445 37.4033C53.1836 37.3252 53.2031 37.248 53.2031 37.1719ZM56.1504 38.9883C56.1504 39.0117 56.1387 39.0312 56.1152 39.0469C56.0918 39.0625 56.0635 39.0752 56.0303 39.085C55.999 39.0947 55.9668 39.1016 55.9336 39.1055C55.9023 39.1094 55.8789 39.1113 55.8633 39.1113C55.8242 39.1113 55.792 39.1074 55.7666 39.0996C55.7432 39.0938 55.7148 39.082 55.6816 39.0645C55.6719 39.0586 55.6484 39.0342 55.6113 38.9912C55.5762 38.9463 55.5312 38.8887 55.4766 38.8184C55.4238 38.748 55.3633 38.668 55.2949 38.5781C55.2285 38.4883 55.1592 38.3965 55.0869 38.3027C55.0166 38.207 54.9463 38.1123 54.876 38.0186C54.8076 37.9229 54.7441 37.8359 54.6855 37.7578C54.627 37.6777 54.5762 37.6084 54.5332 37.5498C54.4922 37.4893 54.4629 37.4473 54.4453 37.4238L54.4277 37.4297C54.4395 37.6621 54.4541 37.8945 54.4717 38.127C54.4912 38.3574 54.5234 38.5859 54.5684 38.8125C54.5742 38.8359 54.5801 38.8604 54.5859 38.8857C54.5938 38.9111 54.5977 38.9375 54.5977 38.9648C54.5977 39.0098 54.583 39.0381 54.5537 39.0498C54.5244 39.0635 54.4922 39.0703 54.457 39.0703C54.4375 39.0703 54.4141 39.0693 54.3867 39.0674C54.3594 39.0654 54.3311 39.0615 54.3018 39.0557C54.2725 39.0498 54.2451 39.042 54.2197 39.0322C54.1963 39.0244 54.1777 39.0137 54.1641 39C54.1367 38.9766 54.1191 38.9521 54.1113 38.9268C54.1055 38.9014 54.0996 38.8711 54.0938 38.8359C54.0371 38.4434 54.001 38.0498 53.9854 37.6553C53.9717 37.2588 53.9648 36.8633 53.9648 36.4688C53.9648 36.2969 53.9658 36.1279 53.9678 35.9619C53.9697 35.7959 53.9727 35.627 53.9766 35.4551C53.9531 35.4531 53.9307 35.4453 53.9092 35.4316C53.8896 35.418 53.8721 35.4014 53.8564 35.3818C53.8408 35.3604 53.8281 35.3389 53.8184 35.3174C53.8105 35.2939 53.8066 35.2715 53.8066 35.25C53.8066 35.2285 53.8115 35.207 53.8213 35.1855C53.833 35.1641 53.8467 35.1445 53.8623 35.127C53.8799 35.1094 53.8984 35.0928 53.918 35.0771C53.9375 35.0615 53.9551 35.0488 53.9707 35.0391V34.9863C53.9707 34.9668 53.9707 34.9443 53.9707 34.9189C53.9727 34.8936 53.9766 34.8701 53.9824 34.8486C53.9902 34.8252 54.002 34.8066 54.0176 34.793C54.0332 34.7773 54.0566 34.7695 54.0879 34.7695C54.1289 34.7695 54.1699 34.7764 54.2109 34.79C54.252 34.8037 54.2871 34.8281 54.3164 34.8633C54.4629 34.8047 54.6172 34.7754 54.7793 34.7754C54.9219 34.7754 55.0518 34.8037 55.1689 34.8604C55.2861 34.917 55.3857 34.9932 55.4678 35.0889C55.5518 35.1846 55.6162 35.2949 55.6611 35.4199C55.7061 35.5449 55.7285 35.6758 55.7285 35.8125C55.7285 35.959 55.7012 36.1016 55.6465 36.2402C55.5918 36.377 55.5205 36.5068 55.4326 36.6299C55.3447 36.7529 55.2441 36.8662 55.1309 36.9697C55.0195 37.0713 54.9062 37.1602 54.791 37.2363C54.9746 37.4805 55.1602 37.7227 55.3477 37.9629C55.5371 38.2012 55.7305 38.4395 55.9277 38.6777C55.9395 38.6914 55.957 38.7119 55.9805 38.7393C56.0059 38.7666 56.0312 38.7969 56.0566 38.8301C56.082 38.8613 56.1035 38.8916 56.1211 38.9209C56.1406 38.9502 56.1504 38.9727 56.1504 38.9883ZM55.2949 35.7656C55.2949 35.6934 55.2822 35.6182 55.2568 35.54C55.2314 35.4619 55.1953 35.3916 55.1484 35.3291C55.1016 35.2646 55.0449 35.2119 54.9785 35.1709C54.9141 35.1299 54.8418 35.1094 54.7617 35.1094C54.6973 35.1094 54.6328 35.1191 54.5684 35.1387C54.5059 35.1562 54.4453 35.1797 54.3867 35.209C54.3906 35.5 54.3936 35.791 54.3955 36.082C54.3994 36.373 54.4043 36.6641 54.4102 36.9551L54.4629 36.9609C54.5645 36.9043 54.6641 36.833 54.7617 36.7471C54.8613 36.6611 54.9502 36.5654 55.0283 36.46C55.1084 36.3545 55.1729 36.2432 55.2217 36.126C55.2705 36.0068 55.2949 35.8867 55.2949 35.7656Z" fill="black"/>
<path d="M11.828 30.144C11.828 30.384 11.816 30.628 11.792 30.876C11.768 31.116 11.72 31.352 11.648 31.584C11.576 31.808 11.468 32.024 11.324 32.232C11.18 32.432 10.984 32.608 10.736 32.76C10.616 32.84 10.472 32.908 10.304 32.964C10.144 33.012 9.972 33.052 9.788 33.084C9.612 33.124 9.436 33.148 9.26 33.156C9.084 33.172 8.92 33.176 8.768 33.168C8.048 33.144 7.464 32.972 7.016 32.652C6.576 32.324 6.236 31.92 5.996 31.44C5.764 30.96 5.612 30.44 5.54 29.88C5.476 29.312 5.464 28.772 5.504 28.26C5.528 27.956 5.58 27.628 5.66 27.276C5.748 26.924 5.872 26.584 6.032 26.256C6.2 25.928 6.404 25.632 6.644 25.368C6.892 25.104 7.184 24.904 7.52 24.768C7.832 24.64 8.172 24.56 8.54 24.528C8.916 24.488 9.284 24.5 9.644 24.564C10.012 24.628 10.352 24.744 10.664 24.912C10.984 25.08 11.236 25.304 11.42 25.584C11.548 25.792 11.648 26.044 11.72 26.34C11.792 26.636 11.804 26.92 11.756 27.192C11.716 27.432 11.632 27.6 11.504 27.696C11.376 27.784 11.236 27.82 11.084 27.804C10.932 27.78 10.784 27.716 10.64 27.612C10.504 27.5 10.412 27.36 10.364 27.192C10.308 27.008 10.24 26.84 10.16 26.688C10.08 26.528 9.956 26.396 9.788 26.292C9.596 26.172 9.392 26.104 9.176 26.088C8.968 26.072 8.764 26.096 8.564 26.16C8.372 26.224 8.188 26.324 8.012 26.46C7.844 26.596 7.704 26.752 7.592 26.928C7.456 27.128 7.352 27.348 7.28 27.588C7.208 27.82 7.156 28.064 7.124 28.32C7.092 28.568 7.08 28.82 7.088 29.076C7.104 29.324 7.136 29.564 7.184 29.796C7.272 30.188 7.408 30.556 7.592 30.9C7.664 31.028 7.76 31.144 7.88 31.248C8.008 31.344 8.148 31.424 8.3 31.488C8.452 31.544 8.612 31.58 8.78 31.596C8.948 31.612 9.108 31.6 9.26 31.56C9.476 31.504 9.652 31.432 9.788 31.344C9.924 31.248 10.032 31.136 10.112 31.008C10.192 30.88 10.244 30.74 10.268 30.588C10.3 30.436 10.316 30.276 10.316 30.108V30.096C10.212 30.096 10.12 30.096 10.04 30.096C9.96 30.088 9.9 30.084 9.86 30.084C9.684 30.084 9.512 30.052 9.344 29.988C9.2 29.94 9.092 29.864 9.02 29.76C8.94 29.672 8.9 29.564 8.9 29.436C8.9 29.388 8.9 29.344 8.9 29.304C8.908 29.256 8.916 29.208 8.924 29.16C8.948 29.096 9 29.016 9.08 28.92C9.128 28.88 9.204 28.848 9.308 28.824C9.356 28.808 9.404 28.796 9.452 28.788C9.5 28.772 9.556 28.76 9.62 28.752C9.668 28.744 9.72 28.74 9.776 28.74C9.832 28.74 9.888 28.74 9.944 28.74H11.036C11.124 28.732 11.224 28.744 11.336 28.776C11.456 28.8 11.548 28.84 11.612 28.896C11.636 28.928 11.66 28.96 11.684 28.992C11.708 29.024 11.728 29.06 11.744 29.1C11.776 29.188 11.796 29.276 11.804 29.364C11.812 29.412 11.816 29.464 11.816 29.52C11.824 29.568 11.828 29.612 11.828 29.652V30.144ZM21.3605 24.984C21.3925 25.136 21.3925 25.296 21.3605 25.464C21.3445 25.544 21.3285 25.624 21.3125 25.704C21.3045 25.776 21.2925 25.852 21.2765 25.932L21.2645 25.98C21.1525 26.476 21.0245 27 20.8805 27.552C20.7445 28.096 20.6205 28.612 20.5085 29.1C20.4125 29.5 20.3125 29.94 20.2085 30.42C20.1045 30.9 19.9965 31.34 19.8845 31.74C19.8445 31.876 19.8005 32.012 19.7525 32.148C19.7125 32.284 19.6605 32.42 19.5965 32.556C19.5405 32.676 19.4725 32.784 19.3925 32.88C19.3205 32.968 19.2365 33.032 19.1405 33.072C19.0445 33.12 18.9405 33.136 18.8285 33.12C18.7245 33.112 18.6085 33.064 18.4805 32.976C18.2885 32.84 18.1445 32.652 18.0485 32.412C17.9605 32.172 17.8685 31.952 17.7725 31.752C17.7405 31.696 17.6925 31.572 17.6285 31.38C17.5645 31.188 17.4965 30.98 17.4245 30.756C17.3525 30.524 17.2805 30.304 17.2085 30.096C17.1445 29.88 17.0885 29.72 17.0405 29.616C16.9685 29.792 16.8965 29.992 16.8245 30.216C16.7525 30.44 16.6845 30.66 16.6205 30.876C16.5565 31.092 16.4965 31.288 16.4405 31.464C16.3925 31.632 16.3565 31.756 16.3325 31.836C16.2685 31.996 16.1965 32.172 16.1165 32.364C16.0445 32.556 15.9525 32.72 15.8405 32.856C15.7365 32.992 15.6085 33.08 15.4565 33.12C15.3045 33.168 15.1245 33.124 14.9165 32.988C14.7565 32.892 14.6445 32.756 14.5805 32.58C14.5405 32.468 14.5005 32.36 14.4605 32.256C14.4205 32.152 14.3885 32.044 14.3645 31.932L14.1245 31.032L13.6325 29.1C13.5685 28.852 13.5045 28.6 13.4405 28.344C13.3845 28.08 13.3165 27.808 13.2365 27.528C13.1965 27.392 13.1605 27.26 13.1285 27.132C13.1045 26.996 13.0765 26.852 13.0445 26.7C13.0205 26.54 12.9885 26.36 12.9485 26.16C12.9165 25.96 12.8765 25.728 12.8285 25.464C12.8125 25.376 12.8005 25.296 12.7925 25.224C12.7925 25.144 12.8005 25.064 12.8165 24.984C12.8325 24.864 12.8885 24.76 12.9845 24.672C13.0245 24.632 13.0725 24.6 13.1285 24.576C13.1845 24.552 13.2445 24.532 13.3085 24.516C13.4045 24.484 13.5045 24.468 13.6085 24.468C13.7045 24.468 13.8045 24.5 13.9085 24.564C13.9805 24.604 14.0365 24.656 14.0765 24.72L14.2205 24.972C14.2365 25.028 14.2525 25.08 14.2685 25.128C14.2845 25.168 14.3005 25.212 14.3165 25.26C14.3325 25.316 14.3445 25.368 14.3525 25.416C14.3605 25.456 14.3685 25.496 14.3765 25.536C14.4485 25.952 14.5365 26.356 14.6405 26.748C14.7445 27.14 14.8405 27.516 14.9285 27.876C14.9605 28.02 15.0005 28.2 15.0485 28.416C15.0965 28.624 15.1445 28.844 15.1925 29.076C15.2405 29.3 15.2885 29.516 15.3365 29.724C15.3845 29.932 15.4325 30.096 15.4805 30.216C15.5845 29.856 15.6885 29.496 15.7925 29.136C15.9045 28.776 16.0245 28.412 16.1525 28.044C16.2165 27.852 16.2805 27.68 16.3445 27.528C16.4165 27.368 16.4965 27.236 16.5845 27.132C16.6725 27.028 16.7725 26.96 16.8845 26.928C16.9965 26.896 17.1285 26.908 17.2805 26.964C17.4165 27.02 17.5365 27.14 17.6405 27.324C17.7445 27.508 17.8365 27.696 17.9165 27.888C17.9885 28.064 18.0565 28.252 18.1205 28.452C18.1925 28.644 18.2605 28.836 18.3245 29.028C18.3965 29.212 18.4645 29.388 18.5285 29.556C18.5925 29.724 18.6565 29.868 18.7205 29.988C18.7445 29.9 18.7725 29.788 18.8045 29.652C18.8365 29.516 18.8685 29.372 18.9005 29.22C18.9405 29.06 18.9765 28.904 19.0085 28.752C19.0405 28.6 19.0725 28.46 19.1045 28.332C19.2085 27.9 19.3165 27.468 19.4285 27.036C19.5405 26.596 19.6485 26.164 19.7525 25.74L19.8125 25.536C19.8285 25.496 19.8365 25.456 19.8365 25.416C19.8445 25.368 19.8565 25.316 19.8725 25.26C19.8885 25.212 19.9045 25.168 19.9205 25.128C19.9365 25.08 19.9525 25.028 19.9685 24.972C19.9845 24.932 20.0005 24.892 20.0165 24.852C20.0405 24.804 20.0685 24.76 20.1005 24.72C20.1245 24.68 20.1525 24.648 20.1845 24.624C20.2165 24.6 20.2485 24.58 20.2805 24.564C20.3925 24.5 20.4885 24.468 20.5685 24.468C20.6725 24.468 20.7725 24.484 20.8685 24.516C20.9965 24.54 21.1125 24.592 21.2165 24.672C21.2965 24.752 21.3445 24.856 21.3605 24.984ZM28.979 24.876C29.067 24.98 29.111 25.088 29.111 25.2C29.111 25.248 29.107 25.3 29.099 25.356C29.099 25.404 29.095 25.448 29.087 25.488C29.063 25.576 29.011 25.66 28.931 25.74C28.867 25.788 28.779 25.824 28.667 25.848C28.611 25.864 28.555 25.876 28.499 25.884C28.443 25.892 28.383 25.904 28.319 25.92C28.263 25.928 28.207 25.932 28.151 25.932C28.095 25.932 28.035 25.932 27.971 25.932H27.359C27.215 25.94 27.071 25.944 26.927 25.944C26.791 25.944 26.655 25.944 26.519 25.944C26.527 26.192 26.531 26.46 26.531 26.748C26.531 27.028 26.527 27.356 26.519 27.732C26.519 28.108 26.515 28.544 26.507 29.04C26.507 29.536 26.507 30.112 26.507 30.768V31.68C26.507 31.76 26.511 31.82 26.519 31.86C26.519 31.892 26.519 31.924 26.519 31.956C26.519 31.98 26.515 32.012 26.507 32.052C26.491 32.124 26.479 32.208 26.471 32.304C26.471 32.344 26.467 32.384 26.459 32.424C26.451 32.456 26.439 32.492 26.423 32.532C26.391 32.564 26.375 32.588 26.375 32.604L26.339 32.676C26.299 32.756 26.223 32.832 26.111 32.904C25.935 32.992 25.739 33.012 25.523 32.964C25.387 32.948 25.283 32.912 25.211 32.856C25.139 32.784 25.087 32.712 25.055 32.64C25.007 32.552 24.979 32.468 24.971 32.388C24.947 32.316 24.935 32.24 24.935 32.16V25.992C24.887 25.992 24.787 25.992 24.635 25.992C24.483 25.992 24.319 25.992 24.143 25.992C23.975 25.984 23.815 25.976 23.663 25.968C23.511 25.96 23.407 25.952 23.351 25.944C23.303 25.936 23.227 25.924 23.123 25.908C23.027 25.892 22.947 25.876 22.883 25.86C22.715 25.812 22.583 25.736 22.487 25.632C22.399 25.528 22.355 25.412 22.355 25.284C22.355 25.236 22.355 25.188 22.355 25.14C22.355 25.092 22.363 25.048 22.379 25.008C22.403 24.912 22.467 24.832 22.571 24.768C22.603 24.744 22.651 24.716 22.715 24.684C22.787 24.644 22.855 24.616 22.919 24.6C23.015 24.568 23.135 24.544 23.279 24.528C23.343 24.52 23.407 24.516 23.471 24.516C23.535 24.516 23.603 24.516 23.675 24.516C23.955 24.516 24.219 24.516 24.467 24.516C24.723 24.516 24.991 24.512 25.271 24.504C25.735 24.496 26.195 24.496 26.651 24.504C27.115 24.504 27.575 24.512 28.031 24.528C28.135 24.536 28.235 24.548 28.331 24.564C28.427 24.58 28.523 24.608 28.619 24.648C28.691 24.672 28.759 24.704 28.823 24.744C28.887 24.776 28.939 24.82 28.979 24.876ZM31.5419 33C31.5419 33.208 31.4659 33.384 31.3139 33.528C31.1699 33.68 30.9939 33.756 30.7859 33.756C30.5779 33.756 30.3979 33.68 30.2459 33.528C30.1019 33.384 30.0299 33.208 30.0299 33C30.0299 32.792 30.1019 32.612 30.2459 32.46C30.3979 32.308 30.5779 32.232 30.7859 32.232C30.9939 32.232 31.1699 32.308 31.3139 32.46C31.4659 32.612 31.5419 32.792 31.5419 33ZM37.6643 25.26C37.9683 25.54 38.1923 25.876 38.3363 26.268C38.4803 26.652 38.5363 27.036 38.5043 27.42C38.4723 27.788 38.3563 28.128 38.1563 28.44C37.9563 28.744 37.6523 28.976 37.2443 29.136C36.9243 29.272 36.6083 29.368 36.2963 29.424C35.9843 29.48 35.6403 29.524 35.2643 29.556C35.0963 29.572 34.9523 29.584 34.8323 29.592C34.7203 29.592 34.5883 29.596 34.4363 29.604C34.4043 29.604 34.3483 29.604 34.2683 29.604C34.1963 29.604 34.1443 29.608 34.1123 29.616V32.1C34.0883 32.252 34.0563 32.408 34.0163 32.568C33.9843 32.728 33.8923 32.852 33.7403 32.94C33.6523 32.988 33.5443 33.016 33.4163 33.024C33.2883 33.032 33.1723 33.028 33.0683 33.012C32.9563 32.996 32.8603 32.968 32.7803 32.928C32.7083 32.88 32.6483 32.8 32.6003 32.688C32.5683 32.616 32.5363 32.536 32.5043 32.448C32.4803 32.352 32.4683 32.236 32.4683 32.1V25.464C32.4683 25.408 32.4723 25.356 32.4803 25.308C32.4883 25.26 32.4963 25.212 32.5043 25.164C32.5203 25.124 32.5323 25.08 32.5403 25.032C32.5483 24.984 32.5603 24.94 32.5763 24.9C32.5923 24.86 32.6083 24.824 32.6243 24.792C32.6483 24.76 32.6763 24.732 32.7083 24.708C32.7483 24.668 32.8083 24.632 32.8883 24.6C32.9763 24.568 33.1043 24.552 33.2723 24.552H33.2963C33.5443 24.536 33.8203 24.524 34.1243 24.516C34.4283 24.5 34.6803 24.504 34.8803 24.528C34.9923 24.544 35.0963 24.556 35.1923 24.564C35.2883 24.564 35.3803 24.568 35.4683 24.576C35.5643 24.584 35.6603 24.592 35.7563 24.6C35.8523 24.608 35.9483 24.62 36.0443 24.636C36.1243 24.652 36.1963 24.664 36.2603 24.672C36.3323 24.68 36.4043 24.692 36.4763 24.708C36.5403 24.724 36.6083 24.74 36.6803 24.756C36.7603 24.772 36.8323 24.8 36.8963 24.84C37.0643 24.888 37.2043 24.948 37.3163 25.02C37.4283 25.092 37.5443 25.172 37.6643 25.26ZM36.9443 27.24C36.9523 27.048 36.9123 26.88 36.8243 26.736C36.7443 26.592 36.6283 26.472 36.4763 26.376C36.3243 26.28 36.1523 26.204 35.9603 26.148C35.7683 26.092 35.5763 26.052 35.3843 26.028C35.3363 26.028 35.2683 26.028 35.1803 26.028C35.1003 26.02 35.0123 26.016 34.9163 26.016C34.8203 26.008 34.7283 26.004 34.6403 26.004C34.5603 25.996 34.4963 25.992 34.4483 25.992C34.4083 25.984 34.3603 25.98 34.3043 25.98C34.2483 25.98 34.1843 25.98 34.1123 25.98C34.1203 26.228 34.1243 26.468 34.1243 26.7C34.1243 26.924 34.1243 27.168 34.1243 27.432C34.1163 27.576 34.1123 27.72 34.1123 27.864C34.1123 28.008 34.1123 28.148 34.1123 28.284L34.8563 28.272C35.0483 28.272 35.2603 28.26 35.4923 28.236C35.7243 28.212 35.9443 28.164 36.1523 28.092C36.3603 28.02 36.5363 27.916 36.6803 27.78C36.8323 27.644 36.9203 27.464 36.9443 27.24ZM45.6798 32.472C45.6878 32.552 45.6798 32.628 45.6558 32.7C45.6398 32.748 45.6158 32.788 45.5838 32.82C45.5598 32.852 45.5278 32.884 45.4878 32.916C45.4158 32.964 45.3278 33.008 45.2238 33.048C45.1598 33.064 45.0958 33.076 45.0318 33.084C44.9758 33.1 44.9158 33.1 44.8518 33.084C44.7238 33.076 44.6118 33.028 44.5158 32.94C44.3798 32.828 44.2678 32.704 44.1798 32.568C44.1398 32.504 44.0958 32.432 44.0478 32.352C43.9998 32.272 43.9558 32.188 43.9158 32.1L42.5838 29.568C42.5198 29.568 42.4558 29.572 42.3918 29.58C42.3278 29.58 42.2638 29.584 42.1998 29.592C42.0318 29.608 41.8718 29.612 41.7198 29.604C41.5758 29.596 41.4238 29.596 41.2638 29.604H41.0358V31.776C41.0358 31.84 41.0318 31.9 41.0238 31.956C41.0238 32.012 41.0238 32.072 41.0238 32.136C41.0238 32.176 41.0198 32.228 41.0118 32.292C41.0118 32.356 41.0078 32.416 40.9998 32.472C40.9838 32.56 40.9478 32.652 40.8918 32.748C40.8358 32.836 40.7598 32.912 40.6638 32.976C40.4958 33.08 40.2918 33.108 40.0518 33.06C39.9478 33.036 39.8478 32.996 39.7518 32.94C39.7198 32.916 39.6918 32.888 39.6678 32.856C39.6438 32.816 39.6238 32.776 39.6078 32.736C39.5918 32.696 39.5758 32.656 39.5598 32.616C39.5518 32.568 39.5398 32.524 39.5238 32.484C39.4998 32.404 39.4878 32.328 39.4878 32.256V25.44C39.4878 25.392 39.4878 25.344 39.4878 25.296C39.4958 25.24 39.5038 25.192 39.5118 25.152C39.5198 25.064 39.5478 24.976 39.5958 24.888C39.6198 24.792 39.6598 24.724 39.7158 24.684C39.7638 24.636 39.8358 24.596 39.9318 24.564C40.0358 24.524 40.1838 24.508 40.3758 24.516C40.7358 24.524 41.0918 24.528 41.4438 24.528C41.7958 24.528 42.1478 24.536 42.4998 24.552C42.7318 24.568 42.9758 24.596 43.2318 24.636C43.4958 24.668 43.7398 24.728 43.9638 24.816C44.1078 24.872 44.2398 24.928 44.3598 24.984C44.5118 25.072 44.6318 25.156 44.7198 25.236C44.9998 25.492 45.2118 25.8 45.3558 26.16C45.4998 26.52 45.5718 26.884 45.5718 27.252C45.5718 27.684 45.4678 28.08 45.2598 28.44C45.0598 28.8 44.7358 29.068 44.2878 29.244C44.2718 29.26 44.2478 29.272 44.2158 29.28C44.1918 29.28 44.1718 29.284 44.1558 29.292L45.2598 31.512L45.3678 31.704C45.3838 31.736 45.4038 31.772 45.4278 31.812C45.4518 31.852 45.4718 31.892 45.4878 31.932C45.5118 31.972 45.5318 32.016 45.5478 32.064C45.5718 32.112 45.5958 32.156 45.6198 32.196C45.6438 32.308 45.6638 32.4 45.6798 32.472ZM42.6798 28.2C42.8238 28.2 42.9598 28.176 43.0878 28.128C43.2238 28.072 43.3438 28 43.4478 27.912C43.5598 27.824 43.6518 27.724 43.7238 27.612C43.7958 27.492 43.8358 27.364 43.8438 27.228C43.8758 26.828 43.7718 26.532 43.5318 26.34C43.2918 26.14 42.9758 26.032 42.5838 26.016C42.3518 26 42.0958 25.992 41.8158 25.992C41.5438 25.992 41.2838 25.992 41.0358 25.992C41.0438 26.32 41.0438 26.656 41.0358 27C41.0358 27.336 41.0358 27.736 41.0358 28.2H42.6798ZM54.052 32.184C54.06 32.232 54.064 32.28 54.064 32.328C54.072 32.368 54.076 32.416 54.076 32.472C54.076 32.568 54.048 32.656 53.992 32.736C53.968 32.776 53.936 32.816 53.896 32.856C53.856 32.888 53.808 32.916 53.752 32.94C53.552 33.052 53.34 33.092 53.116 33.06C53.004 33.028 52.904 32.976 52.816 32.904C52.8 32.888 52.788 32.88 52.78 32.88C52.772 32.872 52.764 32.86 52.756 32.844C52.748 32.836 52.74 32.828 52.732 32.82C52.724 32.804 52.712 32.792 52.696 32.784C52.656 32.744 52.624 32.708 52.6 32.676C52.576 32.636 52.552 32.596 52.528 32.556C52.512 32.516 52.492 32.48 52.468 32.448C52.452 32.408 52.432 32.368 52.408 32.328C52.392 32.296 52.376 32.268 52.36 32.244C52.344 32.212 52.332 32.18 52.324 32.148C52.292 32.076 52.272 32.012 52.264 31.956L52.012 31.368C51.46 31.368 50.908 31.372 50.356 31.38C49.812 31.38 49.264 31.376 48.712 31.368L48.46 31.956C48.444 31.988 48.432 32.02 48.424 32.052C48.424 32.084 48.416 32.116 48.4 32.148C48.384 32.18 48.368 32.212 48.352 32.244C48.344 32.268 48.332 32.296 48.316 32.328C48.292 32.368 48.268 32.408 48.244 32.448C48.228 32.48 48.208 32.516 48.184 32.556C48.168 32.596 48.148 32.636 48.124 32.676C48.1 32.708 48.068 32.744 48.028 32.784C48.012 32.792 48 32.804 47.992 32.82C47.984 32.828 47.976 32.836 47.968 32.844C47.96 32.86 47.952 32.872 47.944 32.88C47.936 32.88 47.924 32.888 47.908 32.904C47.82 32.976 47.72 33.028 47.608 33.06C47.384 33.092 47.172 33.052 46.972 32.94C46.916 32.916 46.868 32.888 46.828 32.856C46.788 32.816 46.756 32.776 46.732 32.736C46.676 32.656 46.648 32.568 46.648 32.472C46.648 32.416 46.648 32.368 46.648 32.328C46.656 32.28 46.664 32.232 46.672 32.184C46.688 32.112 46.708 32.04 46.732 31.968C46.756 31.896 46.768 31.86 46.768 31.86L49.264 25.716L49.336 25.524C49.352 25.476 49.372 25.432 49.396 25.392C49.42 25.352 49.44 25.304 49.456 25.248C49.496 25.144 49.54 25.052 49.588 24.972C49.612 24.924 49.64 24.88 49.672 24.84C49.704 24.8 49.736 24.76 49.768 24.72C49.816 24.656 49.884 24.604 49.972 24.564C50.084 24.524 50.212 24.504 50.356 24.504C50.508 24.504 50.64 24.524 50.752 24.564C50.84 24.604 50.908 24.656 50.956 24.72C51.012 24.792 51.072 24.876 51.136 24.972C51.184 25.052 51.228 25.144 51.268 25.248C51.284 25.304 51.304 25.352 51.328 25.392C51.352 25.432 51.372 25.476 51.388 25.524L51.46 25.716L53.956 31.86C53.956 31.86 53.968 31.896 53.992 31.968C54.016 32.04 54.036 32.112 54.052 32.184ZM51.208 29.244C51.104 29.012 50.996 28.772 50.884 28.524C50.78 28.276 50.668 28.024 50.548 27.768C50.516 27.696 50.484 27.624 50.452 27.552C50.42 27.472 50.388 27.396 50.356 27.324C50.332 27.396 50.304 27.472 50.272 27.552C50.24 27.624 50.208 27.696 50.176 27.768C50.056 28.024 49.94 28.276 49.828 28.524C49.724 28.772 49.62 29.012 49.516 29.244L49.3 29.772H51.424L51.208 29.244ZM60.9353 25.08C60.9753 25.264 60.9793 25.452 60.9473 25.644C60.9233 25.828 60.8873 25.996 60.8393 26.148C60.7433 26.46 60.6313 26.808 60.5033 27.192C60.3753 27.576 60.2473 27.96 60.1193 28.344C59.9913 28.728 59.8673 29.092 59.7473 29.436C59.6273 29.772 59.5273 30.052 59.4473 30.276C59.3673 30.484 59.2833 30.72 59.1953 30.984C59.1073 31.248 58.9993 31.508 58.8713 31.764C58.7513 32.012 58.6073 32.24 58.4393 32.448C58.2793 32.656 58.0833 32.808 57.8513 32.904C57.6193 33 57.4073 33.024 57.2153 32.976C57.0233 32.92 56.8513 32.824 56.6993 32.688C56.5473 32.544 56.4073 32.368 56.2793 32.16C56.1593 31.944 56.0513 31.724 55.9553 31.5C55.8593 31.276 55.7713 31.06 55.6913 30.852C55.6113 30.636 55.5393 30.452 55.4753 30.3C55.2273 29.756 55.0033 29.18 54.8033 28.572C54.6033 27.964 54.3993 27.384 54.1913 26.832C54.1353 26.672 54.0713 26.48 53.9993 26.256C53.9273 26.024 53.8793 25.796 53.8553 25.572C53.8393 25.34 53.8673 25.132 53.9393 24.948C54.0113 24.756 54.1633 24.624 54.3953 24.552C54.4433 24.536 54.4913 24.524 54.5393 24.516C54.5953 24.5 54.6473 24.488 54.6953 24.48C54.7513 24.48 54.8033 24.484 54.8513 24.492C54.8993 24.5 54.9513 24.52 55.0073 24.552C55.0473 24.568 55.0873 24.588 55.1273 24.612C55.1673 24.628 55.2033 24.652 55.2353 24.684C55.2673 24.724 55.2953 24.764 55.3193 24.804C55.3513 24.844 55.3833 24.884 55.4153 24.924C55.4393 24.98 55.4593 25.032 55.4753 25.08C55.4993 25.12 55.5193 25.16 55.5353 25.2C55.5513 25.256 55.5713 25.308 55.5953 25.356C55.6193 25.396 55.6393 25.436 55.6553 25.476L55.7273 25.68L57.4553 30.612L59.1593 25.692L59.2433 25.488C59.2593 25.448 59.2753 25.408 59.2913 25.368C59.3073 25.32 59.3233 25.268 59.3393 25.212C59.3553 25.172 59.3713 25.132 59.3873 25.092C59.4113 25.044 59.4393 24.996 59.4713 24.948C59.4953 24.908 59.5193 24.868 59.5433 24.828C59.5753 24.78 59.6073 24.736 59.6393 24.696C59.6633 24.664 59.6913 24.636 59.7233 24.612C59.7633 24.588 59.7993 24.568 59.8313 24.552C59.8953 24.52 59.9513 24.5 59.9993 24.492C60.0553 24.484 60.1033 24.48 60.1433 24.48C60.1913 24.488 60.2393 24.5 60.2873 24.516C60.3433 24.524 60.3953 24.536 60.4433 24.552C60.5953 24.592 60.7073 24.66 60.7793 24.756C60.8593 24.852 60.9113 24.96 60.9353 25.08Z" fill="black"/>
<path d="M83.7117 32.088C83.7037 32.224 83.6837 32.368 83.6517 32.52C83.6277 32.672 83.5517 32.796 83.4237 32.892C83.3277 32.972 83.2197 33.02 83.0997 33.036C82.9797 33.052 82.8597 33.044 82.7397 33.012C82.6277 32.988 82.5197 32.948 82.4157 32.892C82.3117 32.828 82.2277 32.752 82.1637 32.664C81.8917 32.328 81.6397 31.984 81.4077 31.632C81.1837 31.272 80.9557 30.912 80.7237 30.552L79.7157 29.028C79.5797 28.812 79.4357 28.572 79.2837 28.308C79.1317 28.036 78.9757 27.784 78.8157 27.552L78.7797 32.136V32.244C78.7797 32.372 78.7557 32.5 78.7077 32.628C78.6677 32.748 78.5957 32.852 78.4917 32.94C78.4117 33.004 78.3077 33.048 78.1797 33.072C77.9797 33.112 77.8117 33.1 77.6757 33.036C77.5477 32.972 77.4437 32.884 77.3637 32.772C77.2917 32.66 77.2397 32.532 77.2077 32.388C77.1837 32.236 77.1797 32.088 77.1957 31.944V31.74L77.2197 30.804L77.2317 29.064C77.2397 28.808 77.2437 28.548 77.2437 28.284C77.2437 28.012 77.2437 27.736 77.2437 27.456C77.2357 27.112 77.2357 26.748 77.2437 26.364C77.2597 25.98 77.2757 25.62 77.2917 25.284C77.3077 25.1 77.3517 24.944 77.4237 24.816C77.4557 24.704 77.5397 24.608 77.6757 24.528C77.7637 24.472 77.8757 24.436 78.0117 24.42C78.1557 24.404 78.2797 24.408 78.3837 24.432C78.4237 24.448 78.4637 24.468 78.5037 24.492C78.5437 24.508 78.5837 24.528 78.6237 24.552C78.6637 24.584 78.6997 24.616 78.7317 24.648C78.7717 24.68 78.8077 24.716 78.8397 24.756C78.8797 24.796 78.9157 24.84 78.9477 24.888C78.9797 24.928 79.0117 24.968 79.0437 25.008C79.0677 25.056 79.0917 25.1 79.1157 25.14C79.1397 25.18 79.1677 25.22 79.1997 25.26L79.3317 25.452L82.1037 29.82V29.028C82.1037 28.772 82.0997 28.512 82.0917 28.248C82.0917 27.976 82.0877 27.696 82.0797 27.408C82.0797 27.072 82.0797 26.712 82.0797 26.328C82.0877 25.944 82.0997 25.584 82.1157 25.248C82.1157 25.112 82.1557 24.956 82.2357 24.78C82.2757 24.676 82.3437 24.592 82.4397 24.528C82.5357 24.464 82.6437 24.42 82.7637 24.396C82.8837 24.372 83.0037 24.372 83.1237 24.396C83.2437 24.42 83.3477 24.468 83.4357 24.54C83.4597 24.564 83.4837 24.592 83.5077 24.624C83.5317 24.656 83.5517 24.692 83.5677 24.732C83.6077 24.836 83.6317 24.928 83.6397 25.008C83.6637 25.12 83.6757 25.22 83.6757 25.308C83.6757 26.308 83.6757 27.328 83.6757 28.368C83.6837 29.408 83.6917 30.428 83.6997 31.428C83.6997 31.54 83.7037 31.652 83.7117 31.764C83.7197 31.868 83.7197 31.976 83.7117 32.088Z" fill="black"/>
<rect x="62.1481" y="24.2" width="5.80741" height="1.17333" rx="0.586667" fill="black"/>
<rect x="62.1481" y="26.5467" width="3.31852" height="1.17333" rx="0.586667" fill="black"/>
<rect x="62.1481" y="28.8933" width="5.80741" height="1.17333" rx="0.586667" fill="black"/>
<rect x="69.4074" y="27.2" width="5.80741" height="1.17333" rx="0.586667" fill="black"/>
<rect x="69.4074" y="29.5467" width="3.31852" height="1.17333" rx="0.586667" fill="black"/>
<rect x="69.4074" y="31.8933" width="5.80741" height="1.17333" rx="0.586667" fill="black"/>
<ellipse cx="44.7759" cy="12.7264" rx="10.7759" ry="8.72641" fill="black"/>
<ellipse cx="44.7759" cy="12.7264" rx="6.46552" ry="5.23585" fill="white"/>
<path d="M51.2414 22.5L34 7.14151L37.8793 4.34906L54.6897 19.7076L51.2414 22.5Z" fill="white"/>
<path d="M53.3965 12.3774H48.6552V14.4717L53.3965 18.3113V12.3774Z" fill="black"/>
<path d="M53.3966 5.39622L49.5172 9.5849L51.2414 12.3774H53.3966V18.3113L59 14.1226L53.3966 5.39622Z" fill="white"/>
</svg>
