<svg width="112" height="28" viewBox="0 0 112 28" fill="none" xmlns="http://www.w3.org/2000/svg">
<rect width="112" height="28" fill="black"/>
<path d="M31.792 18.5664C31.792 18.8047 31.79 19.043 31.7861 19.2812C31.7822 19.5195 31.7725 19.7578 31.7568 19.9961C31.7432 20.2324 31.7227 20.4688 31.6953 20.7051C31.668 20.9414 31.6318 21.1777 31.5869 21.4141L31.54 21.6484C31.5459 21.6621 31.5557 21.6846 31.5693 21.7158C31.585 21.7451 31.6006 21.7773 31.6162 21.8125C31.6318 21.8457 31.6455 21.877 31.6572 21.9062C31.6689 21.9355 31.6748 21.9551 31.6748 21.9648C31.6748 21.9902 31.6641 22.0098 31.6426 22.0234C31.623 22.0371 31.5996 22.0469 31.5723 22.0527C31.5449 22.0605 31.5166 22.0654 31.4873 22.0674C31.458 22.0693 31.4346 22.0703 31.417 22.0703C31.3955 22.0703 31.375 22.0693 31.3555 22.0674C31.3359 22.0674 31.3174 22.0645 31.2998 22.0586C31.2549 22.043 31.2246 22.0254 31.209 22.0059C31.1934 21.9863 31.1748 21.957 31.1533 21.918C31.0713 21.7617 30.999 21.6006 30.9365 21.4346C30.876 21.2666 30.8223 21.0967 30.7754 20.9248C30.7285 20.751 30.6865 20.5771 30.6494 20.4033C30.6123 20.2275 30.5771 20.0527 30.5439 19.8789C30.4736 20.5234 30.3623 21.1621 30.21 21.7949C30.2275 21.8301 30.2471 21.8691 30.2686 21.9121C30.292 21.9531 30.3037 21.9941 30.3037 22.0352C30.3037 22.0625 30.2949 22.084 30.2773 22.0996C30.2598 22.1152 30.2373 22.126 30.21 22.1318C30.1846 22.1377 30.1572 22.1406 30.1279 22.1406C30.1006 22.1426 30.0771 22.1426 30.0576 22.1406C30.0518 22.1445 30.0459 22.1475 30.04 22.1494C30.0342 22.1514 30.0264 22.1523 30.0166 22.1523C29.9482 22.1523 29.8936 22.1318 29.8525 22.0908C29.8135 22.0498 29.7822 22 29.7588 21.9414C29.6904 21.7637 29.6299 21.5752 29.5771 21.376C29.5244 21.1768 29.4785 20.9746 29.4395 20.7695C29.4004 20.5645 29.3662 20.3604 29.3369 20.1572C29.3096 19.9521 29.2861 19.7539 29.2666 19.5625C29.2393 19.3301 29.2129 19.0986 29.1875 18.8682C29.1621 18.6377 29.1494 18.4043 29.1494 18.168C29.1494 18.127 29.1553 18.0957 29.167 18.0742C29.1787 18.0508 29.208 18.0391 29.2549 18.0391C29.3271 18.0391 29.3828 18.0508 29.4219 18.0742C29.4629 18.0957 29.4932 18.126 29.5127 18.165C29.5342 18.2021 29.5479 18.2461 29.5537 18.2969C29.5615 18.3477 29.5674 18.4023 29.5713 18.4609C29.6104 18.8945 29.6582 19.3262 29.7148 19.7559C29.7715 20.1855 29.8525 20.6113 29.958 21.0332C30.0107 20.7617 30.0508 20.4902 30.0781 20.2188C30.1074 19.9453 30.1357 19.6719 30.1631 19.3984C30.1689 19.3262 30.1729 19.2529 30.1748 19.1787C30.1768 19.1045 30.1797 19.0303 30.1836 18.9561C30.1895 18.8799 30.1963 18.8047 30.2041 18.7305C30.2139 18.6562 30.2295 18.584 30.251 18.5137C30.2686 18.4512 30.2969 18.4033 30.3359 18.3701C30.375 18.3369 30.4287 18.3203 30.4971 18.3203C30.5635 18.3203 30.6152 18.335 30.6523 18.3643C30.6895 18.3936 30.7178 18.4307 30.7373 18.4756C30.7588 18.5186 30.7734 18.5674 30.7812 18.6221C30.7891 18.6768 30.7959 18.7285 30.8018 18.7773C30.8486 19.1309 30.9092 19.4805 30.9834 19.8262C31.0596 20.1719 31.1494 20.5156 31.2529 20.8574C31.292 20.5547 31.3164 20.2529 31.3262 19.9521C31.3359 19.6514 31.3408 19.3477 31.3408 19.041C31.3408 18.8672 31.3389 18.6924 31.335 18.5166C31.333 18.3408 31.3213 18.1641 31.2998 17.9863C31.2998 17.9648 31.2979 17.9453 31.2939 17.9277C31.29 17.9102 31.2881 17.8906 31.2881 17.8691C31.2881 17.8281 31.3008 17.7988 31.3262 17.7812C31.3516 17.7617 31.3838 17.752 31.4229 17.752C31.4482 17.752 31.4756 17.7549 31.5049 17.7607C31.5361 17.7646 31.5664 17.7715 31.5957 17.7812C31.627 17.7891 31.6553 17.7998 31.6807 17.8135C31.708 17.8271 31.7295 17.8438 31.7451 17.8633C31.7529 17.873 31.7588 17.8945 31.7627 17.9277C31.7686 17.9609 31.7734 18.001 31.7773 18.0479C31.7812 18.0947 31.7842 18.1445 31.7861 18.1973C31.7881 18.25 31.7891 18.3008 31.7891 18.3496C31.791 18.3984 31.792 18.4424 31.792 18.4814C31.792 18.5205 31.792 18.5488 31.792 18.5664ZM33.2246 21.4639C33.2246 21.5225 33.208 21.583 33.1748 21.6455C33.1436 21.708 33.1025 21.7656 33.0518 21.8184C33.001 21.8691 32.9424 21.9111 32.876 21.9443C32.8115 21.9775 32.7471 21.9941 32.6826 21.9941C32.5908 21.9941 32.5117 21.9766 32.4453 21.9414C32.3789 21.9043 32.3213 21.8555 32.2725 21.7949C32.2236 21.7324 32.1836 21.6621 32.1523 21.584C32.123 21.5059 32.0996 21.4258 32.082 21.3438C32.0645 21.2598 32.0518 21.1768 32.0439 21.0947C32.0381 21.0107 32.0352 20.9346 32.0352 20.8662C32.0352 20.8076 32.0381 20.7383 32.0439 20.6582C32.0518 20.5781 32.0635 20.4951 32.0791 20.4092C32.0967 20.3232 32.1201 20.2383 32.1494 20.1543C32.1787 20.0703 32.2148 19.9951 32.2578 19.9287C32.3027 19.8623 32.3555 19.8086 32.416 19.7676C32.4785 19.7266 32.5498 19.7061 32.6299 19.7061C32.6924 19.7061 32.748 19.7188 32.7969 19.7441C32.8477 19.7695 32.8896 19.8037 32.9229 19.8467C32.958 19.8877 32.9844 19.9355 33.002 19.9902C33.0215 20.0449 33.0312 20.1016 33.0312 20.1602C33.0312 20.2363 33.0137 20.3193 32.9785 20.4092C32.9434 20.499 32.8975 20.5859 32.8408 20.6699C32.7861 20.7539 32.7236 20.8301 32.6533 20.8984C32.585 20.9648 32.5166 21.0156 32.4482 21.0508C32.4521 21.0859 32.46 21.1377 32.4717 21.2061C32.4834 21.2725 32.499 21.3389 32.5186 21.4053C32.54 21.4717 32.5645 21.5293 32.5918 21.5781C32.6211 21.627 32.6553 21.6514 32.6943 21.6514C32.7139 21.6514 32.7305 21.6455 32.7441 21.6338C32.7598 21.6221 32.7734 21.6064 32.7852 21.5869C32.7969 21.5674 32.8066 21.5459 32.8145 21.5225C32.8242 21.499 32.833 21.4766 32.8408 21.4551L32.8584 21.4141C32.8623 21.4082 32.8643 21.4043 32.8643 21.4023C32.8662 21.4004 32.8682 21.3975 32.8701 21.3936C32.8838 21.3682 32.8965 21.3447 32.9082 21.3232C32.9219 21.3018 32.9404 21.2832 32.9639 21.2676H32.9609C32.9688 21.2598 32.9766 21.2559 32.9844 21.2559C32.9941 21.2539 33.0029 21.2529 33.0107 21.2529C33.0322 21.2529 33.0557 21.2598 33.0811 21.2734C33.1064 21.2871 33.1299 21.3047 33.1514 21.3262C33.1729 21.3457 33.1904 21.3682 33.2041 21.3936C33.2178 21.417 33.2246 21.4404 33.2246 21.4639ZM32.6445 20.1719C32.6445 20.1523 32.6436 20.1318 32.6416 20.1104C32.6396 20.0889 32.6348 20.0703 32.627 20.0547C32.5996 20.0879 32.5752 20.1279 32.5537 20.1748C32.5342 20.2197 32.5176 20.2676 32.5039 20.3184C32.4902 20.3672 32.4785 20.417 32.4688 20.4678C32.4609 20.5186 32.4551 20.5654 32.4512 20.6084C32.502 20.5479 32.5469 20.4795 32.5859 20.4033C32.625 20.3252 32.6445 20.248 32.6445 20.1719ZM35.2812 20.8516C35.2812 21.0801 35.2441 21.2793 35.1699 21.4492C35.0977 21.6191 34.9961 21.7607 34.8652 21.874C34.7344 21.9873 34.5781 22.0713 34.3965 22.126C34.2168 22.1826 34.0195 22.2109 33.8047 22.2109H33.7051C33.6855 22.2109 33.6562 22.21 33.6172 22.208C33.5781 22.208 33.5381 22.2041 33.4971 22.1963C33.458 22.1904 33.4229 22.1797 33.3916 22.1641C33.3623 22.1484 33.3477 22.127 33.3477 22.0996C33.3477 22.0684 33.3545 22.0371 33.3682 22.0059C33.3838 21.9766 33.4033 21.9502 33.4268 21.9268C33.4502 21.9014 33.4766 21.8809 33.5059 21.8652C33.5352 21.8477 33.5645 21.8359 33.5938 21.8301C33.5781 21.8105 33.5664 21.7842 33.5586 21.751C33.5508 21.7178 33.5439 21.6826 33.5381 21.6455C33.5322 21.6084 33.5273 21.5723 33.5234 21.5371C33.5215 21.5 33.5195 21.4688 33.5176 21.4434C33.4824 21.1406 33.4521 20.8389 33.4268 20.5381C33.4014 20.2373 33.3887 19.9336 33.3887 19.627C33.3887 19.4316 33.3916 19.2383 33.3975 19.0469C33.4033 18.8555 33.4082 18.6621 33.4121 18.4668C33.416 18.3867 33.417 18.3076 33.415 18.2295C33.415 18.1514 33.418 18.0723 33.4238 17.9922C33.4121 17.9961 33.3994 17.998 33.3857 17.998C33.3721 17.998 33.3574 17.998 33.3418 17.998C33.3125 17.998 33.2832 17.9932 33.2539 17.9834C33.2266 17.9717 33.2129 17.9453 33.2129 17.9043C33.2129 17.8535 33.2236 17.8125 33.2451 17.7812C33.2666 17.75 33.2939 17.7266 33.3271 17.7109C33.3604 17.6934 33.3975 17.6826 33.4385 17.6787C33.4814 17.6729 33.5234 17.6699 33.5645 17.6699C33.752 17.6699 33.9336 17.6934 34.1094 17.7402C34.2852 17.7871 34.4404 17.8594 34.5752 17.957C34.71 18.0547 34.8184 18.1797 34.9004 18.332C34.9824 18.4824 35.0234 18.6621 35.0234 18.8711C35.0234 19.043 34.9922 19.207 34.9297 19.3633C34.8672 19.5195 34.7754 19.6582 34.6543 19.7793C34.7637 19.8262 34.8574 19.8877 34.9355 19.9639C35.0156 20.0381 35.0811 20.1221 35.1318 20.2158C35.1826 20.3096 35.2197 20.4111 35.2432 20.5205C35.2686 20.6279 35.2812 20.7383 35.2812 20.8516ZM34.5781 18.8301C34.5781 18.7129 34.5596 18.6094 34.5225 18.5195C34.4854 18.4277 34.4336 18.3486 34.3672 18.2822C34.3008 18.2139 34.2217 18.1592 34.1299 18.1182C34.0381 18.0752 33.9375 18.043 33.8281 18.0215C33.832 18.0312 33.834 18.04 33.834 18.0479C33.834 18.0557 33.834 18.0625 33.834 18.0684C33.834 18.2539 33.832 18.4375 33.8281 18.6191C33.8242 18.7988 33.8223 18.9805 33.8223 19.1641V19.4688C33.8223 19.5078 33.8232 19.5479 33.8252 19.5889C33.8271 19.6279 33.8281 19.668 33.8281 19.709C33.8789 19.6875 33.9297 19.6768 33.9805 19.6768C34.0332 19.6748 34.0859 19.6738 34.1387 19.6738C34.2852 19.582 34.3945 19.4619 34.4668 19.3135C34.541 19.1631 34.5781 19.002 34.5781 18.8301ZM34.8418 20.8457C34.8418 20.752 34.833 20.6611 34.8154 20.5732C34.7998 20.4854 34.7715 20.4053 34.7305 20.333C34.6895 20.2588 34.6357 20.1953 34.5693 20.1426C34.5029 20.0898 34.4199 20.0508 34.3203 20.0254C34.1719 20.1094 34.0137 20.166 33.8457 20.1953C33.8613 20.416 33.8799 20.6367 33.9014 20.8574C33.9248 21.0762 33.957 21.2949 33.998 21.5137C34.0078 21.5645 34.0186 21.6152 34.0303 21.666C34.0439 21.7148 34.0527 21.7656 34.0566 21.8184C34.1875 21.8008 34.3018 21.7646 34.3994 21.71C34.499 21.6533 34.5811 21.583 34.6455 21.499C34.7119 21.4131 34.7607 21.3145 34.792 21.2031C34.8252 21.0918 34.8418 20.9727 34.8418 20.8457ZM38.4893 19.9023C38.4893 20.1113 38.4707 20.3174 38.4336 20.5205C38.3965 20.7217 38.335 20.9102 38.249 21.0859C38.165 21.2617 38.0537 21.4219 37.915 21.5664C37.7764 21.709 37.6064 21.8262 37.4053 21.918C37.3545 21.9414 37.2988 21.9629 37.2383 21.9824C37.1797 22.002 37.1182 22.0186 37.0537 22.0322C36.9912 22.0459 36.9287 22.0566 36.8662 22.0645C36.8037 22.0723 36.7451 22.0762 36.6904 22.0762C36.6689 22.0762 36.6445 22.0752 36.6172 22.0732C36.5918 22.0732 36.5674 22.0693 36.5439 22.0615C36.5205 22.0557 36.501 22.0449 36.4854 22.0293C36.4697 22.0137 36.4619 21.9922 36.4619 21.9648C36.4619 21.9414 36.4668 21.917 36.4766 21.8916C36.4863 21.8662 36.499 21.8418 36.5146 21.8184C36.5322 21.7949 36.5508 21.7744 36.5703 21.7568C36.5898 21.7373 36.6104 21.7227 36.6318 21.7129C36.6221 21.6973 36.6123 21.6533 36.6025 21.5811C36.5947 21.5088 36.5869 21.417 36.5791 21.3057C36.5732 21.1943 36.5674 21.0703 36.5615 20.9336C36.5557 20.7949 36.5498 20.6523 36.5439 20.5059C36.54 20.3594 36.5361 20.2139 36.5322 20.0693C36.5303 19.9229 36.5283 19.7881 36.5264 19.665C36.5244 19.542 36.5225 19.4355 36.5205 19.3457C36.5205 19.2539 36.5205 19.1875 36.5205 19.1465C36.5205 18.9629 36.5234 18.7822 36.5293 18.6045C36.5352 18.4268 36.5381 18.2461 36.5381 18.0625C36.5166 18.0625 36.4961 18.0566 36.4766 18.0449C36.459 18.0332 36.4502 18.0156 36.4502 17.9922C36.4502 17.9609 36.458 17.9326 36.4736 17.9072C36.4893 17.8799 36.5088 17.8564 36.5322 17.8369C36.5576 17.8174 36.585 17.8027 36.6143 17.793C36.6455 17.7812 36.6748 17.7754 36.7021 17.7754C36.7295 17.7754 36.7559 17.7783 36.7812 17.7842C36.8066 17.7881 36.833 17.793 36.8604 17.7988C37.1201 17.8613 37.3516 17.9561 37.5547 18.083C37.7578 18.21 37.9277 18.3643 38.0645 18.5459C38.2031 18.7275 38.3086 18.9326 38.3809 19.1611C38.4531 19.3896 38.4893 19.6367 38.4893 19.9023ZM38.0557 19.8496C38.0557 19.6543 38.0322 19.4707 37.9854 19.2988C37.9385 19.125 37.8682 18.9668 37.7744 18.8242C37.6826 18.6797 37.5664 18.5527 37.4258 18.4434C37.2871 18.332 37.126 18.2402 36.9424 18.168V18.1797C36.9424 18.6836 36.9502 19.1836 36.9658 19.6797C36.9834 20.1738 37.0088 20.6719 37.042 21.1738C37.0479 21.25 37.0527 21.3262 37.0566 21.4023C37.0625 21.4766 37.0713 21.5508 37.083 21.625C37.2666 21.5645 37.4209 21.4707 37.5459 21.3438C37.6709 21.2168 37.7705 21.0723 37.8447 20.9102C37.9209 20.7461 37.9746 20.5723 38.0059 20.3887C38.0391 20.2031 38.0557 20.0234 38.0557 19.8496ZM39.793 21.4639C39.793 21.5225 39.7764 21.583 39.7432 21.6455C39.7119 21.708 39.6709 21.7656 39.6201 21.8184C39.5693 21.8691 39.5107 21.9111 39.4443 21.9443C39.3799 21.9775 39.3154 21.9941 39.251 21.9941C39.1592 21.9941 39.0801 21.9766 39.0137 21.9414C38.9473 21.9043 38.8896 21.8555 38.8408 21.7949C38.792 21.7324 38.752 21.6621 38.7207 21.584C38.6914 21.5059 38.668 21.4258 38.6504 21.3438C38.6328 21.2598 38.6201 21.1768 38.6123 21.0947C38.6064 21.0107 38.6035 20.9346 38.6035 20.8662C38.6035 20.8076 38.6064 20.7383 38.6123 20.6582C38.6201 20.5781 38.6318 20.4951 38.6475 20.4092C38.665 20.3232 38.6885 20.2383 38.7178 20.1543C38.7471 20.0703 38.7832 19.9951 38.8262 19.9287C38.8711 19.8623 38.9238 19.8086 38.9844 19.7676C39.0469 19.7266 39.1182 19.7061 39.1982 19.7061C39.2607 19.7061 39.3164 19.7188 39.3652 19.7441C39.416 19.7695 39.458 19.8037 39.4912 19.8467C39.5264 19.8877 39.5527 19.9355 39.5703 19.9902C39.5898 20.0449 39.5996 20.1016 39.5996 20.1602C39.5996 20.2363 39.582 20.3193 39.5469 20.4092C39.5117 20.499 39.4658 20.5859 39.4092 20.6699C39.3545 20.7539 39.292 20.8301 39.2217 20.8984C39.1533 20.9648 39.085 21.0156 39.0166 21.0508C39.0205 21.0859 39.0283 21.1377 39.04 21.2061C39.0518 21.2725 39.0674 21.3389 39.0869 21.4053C39.1084 21.4717 39.1328 21.5293 39.1602 21.5781C39.1895 21.627 39.2236 21.6514 39.2627 21.6514C39.2822 21.6514 39.2988 21.6455 39.3125 21.6338C39.3281 21.6221 39.3418 21.6064 39.3535 21.5869C39.3652 21.5674 39.375 21.5459 39.3828 21.5225C39.3926 21.499 39.4014 21.4766 39.4092 21.4551L39.4268 21.4141C39.4307 21.4082 39.4326 21.4043 39.4326 21.4023C39.4346 21.4004 39.4365 21.3975 39.4385 21.3936C39.4521 21.3682 39.4648 21.3447 39.4766 21.3232C39.4902 21.3018 39.5088 21.2832 39.5322 21.2676H39.5293C39.5371 21.2598 39.5449 21.2559 39.5527 21.2559C39.5625 21.2539 39.5713 21.2529 39.5791 21.2529C39.6006 21.2529 39.624 21.2598 39.6494 21.2734C39.6748 21.2871 39.6982 21.3047 39.7197 21.3262C39.7412 21.3457 39.7588 21.3682 39.7725 21.3936C39.7861 21.417 39.793 21.4404 39.793 21.4639ZM39.2129 20.1719C39.2129 20.1523 39.2119 20.1318 39.21 20.1104C39.208 20.0889 39.2031 20.0703 39.1953 20.0547C39.168 20.0879 39.1436 20.1279 39.1221 20.1748C39.1025 20.2197 39.0859 20.2676 39.0723 20.3184C39.0586 20.3672 39.0469 20.417 39.0371 20.4678C39.0293 20.5186 39.0234 20.5654 39.0195 20.6084C39.0703 20.5479 39.1152 20.4795 39.1543 20.4033C39.1934 20.3252 39.2129 20.248 39.2129 20.1719ZM41.4014 19.0762C41.4014 19.5391 41.3623 19.9961 41.2842 20.4473C41.208 20.8965 41.0791 21.3359 40.8975 21.7656C40.9033 21.7793 40.9121 21.7988 40.9238 21.8242C40.9355 21.8496 40.9473 21.877 40.959 21.9062C40.9707 21.9336 40.9805 21.96 40.9883 21.9854C40.998 22.0107 41.0029 22.0293 41.0029 22.041C41.0029 22.0684 40.9951 22.0889 40.9795 22.1025C40.9639 22.1162 40.9443 22.126 40.9209 22.1318C40.8975 22.1377 40.873 22.1406 40.8477 22.1406C40.8242 22.1406 40.8037 22.1406 40.7861 22.1406C40.7354 22.1406 40.6904 22.1377 40.6514 22.1318C40.6123 22.126 40.5732 22.1055 40.5342 22.0703C40.5068 22.0469 40.4746 21.9883 40.4375 21.8945C40.4023 21.7988 40.3633 21.6807 40.3203 21.54C40.2773 21.3975 40.2324 21.2373 40.1855 21.0596C40.1406 20.8818 40.0947 20.6992 40.0479 20.5117C40.0029 20.3223 39.959 20.1348 39.916 19.9492C39.873 19.7617 39.833 19.5879 39.7959 19.4277C39.7607 19.2676 39.7295 19.126 39.7021 19.0029C39.6768 18.8799 39.6572 18.7891 39.6436 18.7305C39.6221 18.6309 39.5977 18.5322 39.5703 18.4346C39.5449 18.3369 39.5322 18.2363 39.5322 18.1328C39.5322 18.0977 39.5449 18.0752 39.5703 18.0654C39.5957 18.0557 39.6221 18.0508 39.6494 18.0508C39.7061 18.0508 39.7598 18.0605 39.8105 18.0801C39.8613 18.0996 39.9014 18.1328 39.9307 18.1797C39.9463 18.207 39.958 18.2441 39.9658 18.291C39.9756 18.3359 39.9834 18.373 39.9893 18.4023C40.0518 18.6875 40.1162 18.9717 40.1826 19.2549C40.249 19.5361 40.3193 19.8184 40.3936 20.1016C40.4404 20.2793 40.4863 20.4551 40.5312 20.6289C40.5781 20.8027 40.6299 20.9766 40.6865 21.1504C40.7842 20.8418 40.8535 20.5264 40.8945 20.2041C40.9355 19.8818 40.9561 19.5586 40.9561 19.2344C40.9561 19.1836 40.9551 19.1201 40.9531 19.0439C40.9531 18.9678 40.9521 18.8867 40.9502 18.8008C40.9482 18.7129 40.9443 18.623 40.9385 18.5312C40.9346 18.4395 40.9287 18.3516 40.9209 18.2676C40.9131 18.1836 40.9023 18.1064 40.8887 18.0361C40.877 17.9639 40.8623 17.9062 40.8447 17.8633C40.8389 17.8477 40.832 17.834 40.8242 17.8223C40.8184 17.8086 40.8154 17.793 40.8154 17.7754C40.8154 17.752 40.8242 17.7334 40.8418 17.7197C40.8594 17.7061 40.8799 17.6953 40.9033 17.6875C40.9268 17.6797 40.9512 17.6748 40.9766 17.6729C41.002 17.6709 41.0225 17.6699 41.0381 17.6699C41.0908 17.6699 41.1367 17.6758 41.1758 17.6875C41.2168 17.6973 41.2568 17.7227 41.2959 17.7637C41.3135 17.7812 41.3281 17.8213 41.3398 17.8838C41.3516 17.9463 41.3613 18.0205 41.3691 18.1064C41.377 18.1924 41.3828 18.2852 41.3867 18.3848C41.3926 18.4824 41.3965 18.5771 41.3984 18.6689C41.4004 18.7607 41.4014 18.8428 41.4014 18.915C41.4014 18.9873 41.4014 19.041 41.4014 19.0762ZM42.7754 21.4639C42.7754 21.5225 42.7588 21.583 42.7256 21.6455C42.6943 21.708 42.6533 21.7656 42.6025 21.8184C42.5518 21.8691 42.4932 21.9111 42.4268 21.9443C42.3623 21.9775 42.2979 21.9941 42.2334 21.9941C42.1416 21.9941 42.0625 21.9766 41.9961 21.9414C41.9297 21.9043 41.8721 21.8555 41.8232 21.7949C41.7744 21.7324 41.7344 21.6621 41.7031 21.584C41.6738 21.5059 41.6504 21.4258 41.6328 21.3438C41.6152 21.2598 41.6025 21.1768 41.5947 21.0947C41.5889 21.0107 41.5859 20.9346 41.5859 20.8662C41.5859 20.8076 41.5889 20.7383 41.5947 20.6582C41.6025 20.5781 41.6143 20.4951 41.6299 20.4092C41.6475 20.3232 41.6709 20.2383 41.7002 20.1543C41.7295 20.0703 41.7656 19.9951 41.8086 19.9287C41.8535 19.8623 41.9062 19.8086 41.9668 19.7676C42.0293 19.7266 42.1006 19.7061 42.1807 19.7061C42.2432 19.7061 42.2988 19.7188 42.3477 19.7441C42.3984 19.7695 42.4404 19.8037 42.4736 19.8467C42.5088 19.8877 42.5352 19.9355 42.5527 19.9902C42.5723 20.0449 42.582 20.1016 42.582 20.1602C42.582 20.2363 42.5645 20.3193 42.5293 20.4092C42.4941 20.499 42.4482 20.5859 42.3916 20.6699C42.3369 20.7539 42.2744 20.8301 42.2041 20.8984C42.1357 20.9648 42.0674 21.0156 41.999 21.0508C42.0029 21.0859 42.0107 21.1377 42.0225 21.2061C42.0342 21.2725 42.0498 21.3389 42.0693 21.4053C42.0908 21.4717 42.1152 21.5293 42.1426 21.5781C42.1719 21.627 42.2061 21.6514 42.2451 21.6514C42.2646 21.6514 42.2812 21.6455 42.2949 21.6338C42.3105 21.6221 42.3242 21.6064 42.3359 21.5869C42.3477 21.5674 42.3574 21.5459 42.3652 21.5225C42.375 21.499 42.3838 21.4766 42.3916 21.4551L42.4092 21.4141C42.4131 21.4082 42.415 21.4043 42.415 21.4023C42.417 21.4004 42.4189 21.3975 42.4209 21.3936C42.4346 21.3682 42.4473 21.3447 42.459 21.3232C42.4727 21.3018 42.4912 21.2832 42.5146 21.2676H42.5117C42.5195 21.2598 42.5273 21.2559 42.5352 21.2559C42.5449 21.2539 42.5537 21.2529 42.5615 21.2529C42.583 21.2529 42.6064 21.2598 42.6318 21.2734C42.6572 21.2871 42.6807 21.3047 42.7021 21.3262C42.7236 21.3457 42.7412 21.3682 42.7549 21.3936C42.7686 21.417 42.7754 21.4404 42.7754 21.4639ZM42.1953 20.1719C42.1953 20.1523 42.1943 20.1318 42.1924 20.1104C42.1904 20.0889 42.1855 20.0703 42.1777 20.0547C42.1504 20.0879 42.126 20.1279 42.1045 20.1748C42.085 20.2197 42.0684 20.2676 42.0547 20.3184C42.041 20.3672 42.0293 20.417 42.0195 20.4678C42.0117 20.5186 42.0059 20.5654 42.002 20.6084C42.0527 20.5479 42.0977 20.4795 42.1367 20.4033C42.1758 20.3252 42.1953 20.248 42.1953 20.1719ZM44.6123 21.5723C44.6123 21.6172 44.5879 21.6602 44.5391 21.7012C44.4922 21.7422 44.4307 21.7803 44.3545 21.8154C44.2803 21.8486 44.1973 21.8799 44.1055 21.9092C44.0156 21.9365 43.9268 21.96 43.8389 21.9795C43.7529 21.999 43.6738 22.0137 43.6016 22.0234C43.5293 22.0352 43.4756 22.041 43.4404 22.041C43.374 22.041 43.3125 22.0332 43.2559 22.0176C43.2012 22.002 43.1533 21.9785 43.1123 21.9473C43.0713 21.9141 43.0391 21.8721 43.0156 21.8213C42.9941 21.7705 42.9834 21.709 42.9834 21.6367C42.9834 21.1152 42.9854 20.5957 42.9893 20.0781C42.9932 19.5605 42.9951 19.0391 42.9951 18.5137C42.9951 18.4316 42.9932 18.3506 42.9893 18.2705C42.9854 18.1904 42.9834 18.1094 42.9834 18.0273C42.9834 18.0078 42.9844 17.9854 42.9863 17.96C42.9883 17.9326 42.9932 17.9082 43.001 17.8867C43.0088 17.8633 43.0205 17.8438 43.0361 17.8281C43.0518 17.8125 43.0732 17.8047 43.1006 17.8047C43.1279 17.8047 43.1562 17.8086 43.1855 17.8164C43.2168 17.8242 43.2451 17.8359 43.2705 17.8516C43.2979 17.8672 43.3213 17.8867 43.3408 17.9102C43.3623 17.9316 43.3779 17.957 43.3877 17.9863C43.3975 18.0215 43.4014 18.0596 43.3994 18.1006C43.3994 18.1396 43.3994 18.1797 43.3994 18.2207C43.4092 18.7402 43.416 19.2559 43.4199 19.7676C43.4258 20.2793 43.4287 20.7949 43.4287 21.3145C43.4287 21.373 43.4287 21.4316 43.4287 21.4902C43.4307 21.5488 43.4346 21.6074 43.4404 21.666C43.4932 21.6641 43.5576 21.6553 43.6338 21.6396C43.71 21.624 43.7861 21.6045 43.8623 21.5811C43.9404 21.5557 44.0137 21.5273 44.082 21.4961C44.1504 21.4648 44.2041 21.4316 44.2432 21.3965C44.2607 21.3789 44.2793 21.3613 44.2988 21.3438C44.3184 21.3242 44.3428 21.3145 44.3721 21.3145C44.3975 21.3145 44.4238 21.3232 44.4512 21.3408C44.4805 21.3584 44.5068 21.3809 44.5303 21.4082C44.5537 21.4336 44.5732 21.4609 44.5889 21.4902C44.6045 21.5195 44.6123 21.5469 44.6123 21.5723ZM46.5869 19.75C46.5869 19.832 46.585 19.9277 46.5811 20.0371C46.5791 20.1445 46.5723 20.2598 46.5605 20.3828C46.5508 20.5059 46.5352 20.6318 46.5137 20.7607C46.4941 20.8896 46.4678 21.0156 46.4346 21.1387C46.4014 21.2617 46.3604 21.3779 46.3115 21.4873C46.2627 21.5967 46.2041 21.6924 46.1357 21.7744C46.0674 21.8564 45.9883 21.9219 45.8984 21.9707C45.8086 22.0176 45.7061 22.041 45.5908 22.041C45.4756 22.041 45.3711 22.0146 45.2773 21.9619C45.1836 21.9072 45.1045 21.8359 45.04 21.748C44.9873 21.6777 44.9404 21.5918 44.8994 21.4902C44.8604 21.3867 44.8252 21.2744 44.7939 21.1533C44.7646 21.0322 44.7393 20.9062 44.7178 20.7754C44.6963 20.6445 44.6787 20.5156 44.665 20.3887C44.6533 20.2617 44.6445 20.1416 44.6387 20.0283C44.6328 19.9131 44.6299 19.8125 44.6299 19.7266C44.6299 19.582 44.6357 19.4307 44.6475 19.2725C44.6611 19.1143 44.6855 18.958 44.7207 18.8037C44.7559 18.6475 44.8037 18.4971 44.8643 18.3525C44.9248 18.208 45.0029 18.0781 45.0986 17.9629C45.1084 17.9512 45.1201 17.9375 45.1338 17.9219C45.1494 17.9062 45.166 17.8916 45.1836 17.8779C45.2012 17.8623 45.2188 17.8496 45.2363 17.8398C45.2559 17.8281 45.2744 17.8223 45.292 17.8223C45.3096 17.8223 45.3262 17.8271 45.3418 17.8369C45.3594 17.8467 45.374 17.8594 45.3857 17.875C45.4268 17.8516 45.4697 17.835 45.5146 17.8252C45.5615 17.8154 45.6084 17.8105 45.6553 17.8105C45.7979 17.8105 45.9199 17.8447 46.0215 17.9131C46.125 17.9795 46.2109 18.0674 46.2793 18.1768C46.3477 18.2861 46.4023 18.4102 46.4434 18.5488C46.4844 18.6875 46.5156 18.8291 46.5371 18.9736C46.5586 19.1182 46.5723 19.2578 46.5781 19.3926C46.584 19.5273 46.5869 19.6465 46.5869 19.75ZM46.1299 19.8789C46.1299 19.8281 46.1279 19.751 46.124 19.6475C46.1221 19.542 46.1152 19.4268 46.1035 19.3018C46.0918 19.1748 46.0752 19.0449 46.0537 18.9121C46.0342 18.7793 46.0068 18.6592 45.9717 18.5518C45.9365 18.4424 45.8926 18.3535 45.8398 18.2852C45.7891 18.2148 45.7275 18.1797 45.6553 18.1797C45.626 18.1797 45.5996 18.1934 45.5762 18.2207C45.5527 18.248 45.5303 18.2832 45.5088 18.3262C45.4873 18.3691 45.4678 18.416 45.4502 18.4668C45.4326 18.5176 45.415 18.5664 45.3975 18.6133C45.3799 18.6602 45.3633 18.7021 45.3477 18.7393C45.332 18.7764 45.3154 18.8027 45.2979 18.8184C45.292 18.8242 45.2822 18.8281 45.2686 18.8301C45.2568 18.8301 45.2451 18.8301 45.2334 18.8301C45.2002 18.8301 45.1689 18.8242 45.1396 18.8125C45.1064 18.9453 45.083 19.0781 45.0693 19.2109C45.0576 19.3418 45.0518 19.4746 45.0518 19.6094C45.0518 19.6504 45.0537 19.7119 45.0576 19.7939C45.0615 19.876 45.0674 19.9697 45.0752 20.0752C45.083 20.1807 45.0938 20.2939 45.1074 20.415C45.1211 20.5361 45.1377 20.6572 45.1572 20.7783C45.1768 20.8975 45.1992 21.0127 45.2246 21.124C45.252 21.2334 45.2832 21.3311 45.3184 21.417C45.3535 21.501 45.3926 21.5684 45.4355 21.6191C45.4785 21.6699 45.5264 21.6953 45.5791 21.6953C45.6084 21.6953 45.6348 21.6875 45.6582 21.6719C45.6816 21.6543 45.7041 21.6367 45.7256 21.6191C45.7842 21.5664 45.835 21.4971 45.8779 21.4111C45.9209 21.3252 45.957 21.2305 45.9863 21.127C46.0156 21.0234 46.04 20.915 46.0596 20.8018C46.0791 20.6865 46.0938 20.5732 46.1035 20.4619C46.1133 20.3506 46.1201 20.2451 46.124 20.1455C46.1279 20.0439 46.1299 19.9551 46.1299 19.8789ZM48.8252 18.8477C48.8252 19.041 48.7939 19.2354 48.7314 19.4307C48.6709 19.626 48.585 19.8086 48.4736 19.9785C48.3643 20.1484 48.2324 20.2998 48.0781 20.4326C47.9238 20.5654 47.7549 20.666 47.5713 20.7344C47.583 20.8965 47.5967 21.0576 47.6123 21.2178C47.6279 21.3779 47.6494 21.5391 47.6768 21.7012C47.6826 21.7305 47.6885 21.7607 47.6943 21.792C47.7021 21.8232 47.7061 21.8555 47.7061 21.8887C47.7061 21.9395 47.6934 21.9736 47.668 21.9912C47.6426 22.0088 47.6064 22.0176 47.5596 22.0176C47.5264 22.0176 47.4863 22.0137 47.4395 22.0059C47.3926 21.998 47.3525 21.9863 47.3193 21.9707C47.2803 21.9492 47.2539 21.9277 47.2402 21.9062C47.2285 21.8828 47.2197 21.8516 47.2139 21.8125C47.1807 21.6465 47.1602 21.4805 47.1523 21.3145C47.1465 21.1484 47.1377 20.9824 47.126 20.8164C47.0869 20.8125 47.0547 20.8027 47.0293 20.7871C47.0039 20.7695 46.9912 20.7402 46.9912 20.6992C46.9912 20.6602 47.002 20.6191 47.0234 20.5762C47.0469 20.5332 47.0732 20.5 47.1025 20.4766C47.085 20.1133 47.0771 19.7529 47.0791 19.3955C47.083 19.0381 47.083 18.6777 47.0791 18.3145C47.0693 18.3184 47.0605 18.3213 47.0527 18.3232C47.0449 18.3252 47.0361 18.3262 47.0264 18.3262C47.0049 18.3262 46.9873 18.3213 46.9736 18.3115C46.96 18.2998 46.9482 18.2861 46.9385 18.2705C46.9307 18.2549 46.9248 18.2383 46.9209 18.2207C46.917 18.2012 46.915 18.1836 46.915 18.168C46.915 18.1094 46.9297 18.0674 46.959 18.042C46.9883 18.0146 47.0283 17.9902 47.0791 17.9688C47.0791 17.9473 47.0791 17.9229 47.0791 17.8955C47.0811 17.8662 47.085 17.8398 47.0908 17.8164C47.0986 17.791 47.1104 17.7705 47.126 17.7549C47.1416 17.7373 47.165 17.7285 47.1963 17.7285C47.2471 17.7285 47.2959 17.7383 47.3428 17.7578C47.3896 17.7773 47.4248 17.8105 47.4482 17.8574C47.5166 17.8457 47.583 17.835 47.6475 17.8252C47.7119 17.8154 47.7783 17.8105 47.8467 17.8105C48.001 17.8105 48.1387 17.8369 48.2598 17.8896C48.3809 17.9404 48.4834 18.0127 48.5674 18.1064C48.6514 18.1982 48.7148 18.3076 48.7578 18.4346C48.8027 18.5615 48.8252 18.6992 48.8252 18.8477ZM48.3857 18.7949C48.3857 18.7051 48.374 18.6211 48.3506 18.543C48.3271 18.4629 48.292 18.3945 48.2451 18.3379C48.1982 18.2793 48.1387 18.2334 48.0664 18.2002C47.9941 18.167 47.9092 18.1504 47.8115 18.1504C47.7588 18.1504 47.7051 18.1543 47.6504 18.1621C47.5977 18.1699 47.5459 18.1816 47.4951 18.1973C47.4951 18.5547 47.4971 18.9092 47.501 19.2607C47.5068 19.6123 47.5205 19.9648 47.542 20.3184C47.667 20.2539 47.7812 20.1641 47.8848 20.0488C47.9883 19.9336 48.0771 19.8066 48.1514 19.668C48.2256 19.5273 48.2832 19.3818 48.3242 19.2314C48.3652 19.0791 48.3857 18.9336 48.3857 18.7949ZM49.7832 21.4639C49.7832 21.5225 49.7666 21.583 49.7334 21.6455C49.7021 21.708 49.6611 21.7656 49.6104 21.8184C49.5596 21.8691 49.501 21.9111 49.4346 21.9443C49.3701 21.9775 49.3057 21.9941 49.2412 21.9941C49.1494 21.9941 49.0703 21.9766 49.0039 21.9414C48.9375 21.9043 48.8799 21.8555 48.8311 21.7949C48.7822 21.7324 48.7422 21.6621 48.7109 21.584C48.6816 21.5059 48.6582 21.4258 48.6406 21.3438C48.623 21.2598 48.6104 21.1768 48.6025 21.0947C48.5967 21.0107 48.5938 20.9346 48.5938 20.8662C48.5938 20.8076 48.5967 20.7383 48.6025 20.6582C48.6104 20.5781 48.6221 20.4951 48.6377 20.4092C48.6553 20.3232 48.6787 20.2383 48.708 20.1543C48.7373 20.0703 48.7734 19.9951 48.8164 19.9287C48.8613 19.8623 48.9141 19.8086 48.9746 19.7676C49.0371 19.7266 49.1084 19.7061 49.1885 19.7061C49.251 19.7061 49.3066 19.7188 49.3555 19.7441C49.4062 19.7695 49.4482 19.8037 49.4814 19.8467C49.5166 19.8877 49.543 19.9355 49.5605 19.9902C49.5801 20.0449 49.5898 20.1016 49.5898 20.1602C49.5898 20.2363 49.5723 20.3193 49.5371 20.4092C49.502 20.499 49.4561 20.5859 49.3994 20.6699C49.3447 20.7539 49.2822 20.8301 49.2119 20.8984C49.1436 20.9648 49.0752 21.0156 49.0068 21.0508C49.0107 21.0859 49.0186 21.1377 49.0303 21.2061C49.042 21.2725 49.0576 21.3389 49.0771 21.4053C49.0986 21.4717 49.123 21.5293 49.1504 21.5781C49.1797 21.627 49.2139 21.6514 49.2529 21.6514C49.2725 21.6514 49.2891 21.6455 49.3027 21.6338C49.3184 21.6221 49.332 21.6064 49.3438 21.5869C49.3555 21.5674 49.3652 21.5459 49.373 21.5225C49.3828 21.499 49.3916 21.4766 49.3994 21.4551L49.417 21.4141C49.4209 21.4082 49.4229 21.4043 49.4229 21.4023C49.4248 21.4004 49.4268 21.3975 49.4287 21.3936C49.4424 21.3682 49.4551 21.3447 49.4668 21.3232C49.4805 21.3018 49.499 21.2832 49.5225 21.2676H49.5195C49.5273 21.2598 49.5352 21.2559 49.543 21.2559C49.5527 21.2539 49.5615 21.2529 49.5693 21.2529C49.5908 21.2529 49.6143 21.2598 49.6396 21.2734C49.665 21.2871 49.6885 21.3047 49.71 21.3262C49.7314 21.3457 49.749 21.3682 49.7627 21.3936C49.7764 21.417 49.7832 21.4404 49.7832 21.4639ZM49.2031 20.1719C49.2031 20.1523 49.2021 20.1318 49.2002 20.1104C49.1982 20.0889 49.1934 20.0703 49.1855 20.0547C49.1582 20.0879 49.1338 20.1279 49.1123 20.1748C49.0928 20.2197 49.0762 20.2676 49.0625 20.3184C49.0488 20.3672 49.0371 20.417 49.0273 20.4678C49.0195 20.5186 49.0137 20.5654 49.0098 20.6084C49.0605 20.5479 49.1055 20.4795 49.1445 20.4033C49.1836 20.3252 49.2031 20.248 49.2031 20.1719ZM52.1504 21.9883C52.1504 22.0117 52.1387 22.0312 52.1152 22.0469C52.0918 22.0625 52.0635 22.0752 52.0303 22.085C51.999 22.0947 51.9668 22.1016 51.9336 22.1055C51.9023 22.1094 51.8789 22.1113 51.8633 22.1113C51.8242 22.1113 51.792 22.1074 51.7666 22.0996C51.7432 22.0938 51.7148 22.082 51.6816 22.0645C51.6719 22.0586 51.6484 22.0342 51.6113 21.9912C51.5762 21.9463 51.5312 21.8887 51.4766 21.8184C51.4238 21.748 51.3633 21.668 51.2949 21.5781C51.2285 21.4883 51.1592 21.3965 51.0869 21.3027C51.0166 21.207 50.9463 21.1123 50.876 21.0186C50.8076 20.9229 50.7441 20.8359 50.6855 20.7578C50.627 20.6777 50.5762 20.6084 50.5332 20.5498C50.4922 20.4893 50.4629 20.4473 50.4453 20.4238L50.4277 20.4297C50.4395 20.6621 50.4541 20.8945 50.4717 21.127C50.4912 21.3574 50.5234 21.5859 50.5684 21.8125C50.5742 21.8359 50.5801 21.8604 50.5859 21.8857C50.5938 21.9111 50.5977 21.9375 50.5977 21.9648C50.5977 22.0098 50.583 22.0381 50.5537 22.0498C50.5244 22.0635 50.4922 22.0703 50.457 22.0703C50.4375 22.0703 50.4141 22.0693 50.3867 22.0674C50.3594 22.0654 50.3311 22.0615 50.3018 22.0557C50.2725 22.0498 50.2451 22.042 50.2197 22.0322C50.1963 22.0244 50.1777 22.0137 50.1641 22C50.1367 21.9766 50.1191 21.9521 50.1113 21.9268C50.1055 21.9014 50.0996 21.8711 50.0938 21.8359C50.0371 21.4434 50.001 21.0498 49.9854 20.6553C49.9717 20.2588 49.9648 19.8633 49.9648 19.4688C49.9648 19.2969 49.9658 19.1279 49.9678 18.9619C49.9697 18.7959 49.9727 18.627 49.9766 18.4551C49.9531 18.4531 49.9307 18.4453 49.9092 18.4316C49.8896 18.418 49.8721 18.4014 49.8564 18.3818C49.8408 18.3604 49.8281 18.3389 49.8184 18.3174C49.8105 18.2939 49.8066 18.2715 49.8066 18.25C49.8066 18.2285 49.8115 18.207 49.8213 18.1855C49.833 18.1641 49.8467 18.1445 49.8623 18.127C49.8799 18.1094 49.8984 18.0928 49.918 18.0771C49.9375 18.0615 49.9551 18.0488 49.9707 18.0391V17.9863C49.9707 17.9668 49.9707 17.9443 49.9707 17.9189C49.9727 17.8936 49.9766 17.8701 49.9824 17.8486C49.9902 17.8252 50.002 17.8066 50.0176 17.793C50.0332 17.7773 50.0566 17.7695 50.0879 17.7695C50.1289 17.7695 50.1699 17.7764 50.2109 17.79C50.252 17.8037 50.2871 17.8281 50.3164 17.8633C50.4629 17.8047 50.6172 17.7754 50.7793 17.7754C50.9219 17.7754 51.0518 17.8037 51.1689 17.8604C51.2861 17.917 51.3857 17.9932 51.4678 18.0889C51.5518 18.1846 51.6162 18.2949 51.6611 18.4199C51.7061 18.5449 51.7285 18.6758 51.7285 18.8125C51.7285 18.959 51.7012 19.1016 51.6465 19.2402C51.5918 19.377 51.5205 19.5068 51.4326 19.6299C51.3447 19.7529 51.2441 19.8662 51.1309 19.9697C51.0195 20.0713 50.9062 20.1602 50.791 20.2363C50.9746 20.4805 51.1602 20.7227 51.3477 20.9629C51.5371 21.2012 51.7305 21.4395 51.9277 21.6777C51.9395 21.6914 51.957 21.7119 51.9805 21.7393C52.0059 21.7666 52.0312 21.7969 52.0566 21.8301C52.082 21.8613 52.1035 21.8916 52.1211 21.9209C52.1406 21.9502 52.1504 21.9727 52.1504 21.9883ZM51.2949 18.7656C51.2949 18.6934 51.2822 18.6182 51.2568 18.54C51.2314 18.4619 51.1953 18.3916 51.1484 18.3291C51.1016 18.2646 51.0449 18.2119 50.9785 18.1709C50.9141 18.1299 50.8418 18.1094 50.7617 18.1094C50.6973 18.1094 50.6328 18.1191 50.5684 18.1387C50.5059 18.1562 50.4453 18.1797 50.3867 18.209C50.3906 18.5 50.3936 18.791 50.3955 19.082C50.3994 19.373 50.4043 19.6641 50.4102 19.9551L50.4629 19.9609C50.5645 19.9043 50.6641 19.833 50.7617 19.7471C50.8613 19.6611 50.9502 19.5654 51.0283 19.46C51.1084 19.3545 51.1729 19.2432 51.2217 19.126C51.2705 19.0068 51.2949 18.8867 51.2949 18.7656Z" fill="white"/>
<path d="M35.828 13.144C35.828 13.384 35.816 13.628 35.792 13.876C35.768 14.116 35.72 14.352 35.648 14.584C35.576 14.808 35.468 15.024 35.324 15.232C35.18 15.432 34.984 15.608 34.736 15.76C34.616 15.84 34.472 15.908 34.304 15.964C34.144 16.012 33.972 16.052 33.788 16.084C33.612 16.124 33.436 16.148 33.26 16.156C33.084 16.172 32.92 16.176 32.768 16.168C32.048 16.144 31.464 15.972 31.016 15.652C30.576 15.324 30.236 14.92 29.996 14.44C29.764 13.96 29.612 13.44 29.54 12.88C29.476 12.312 29.464 11.772 29.504 11.26C29.528 10.956 29.58 10.628 29.66 10.276C29.748 9.924 29.872 9.584 30.032 9.256C30.2 8.928 30.404 8.632 30.644 8.368C30.892 8.104 31.184 7.904 31.52 7.768C31.832 7.64 32.172 7.56 32.54 7.528C32.916 7.488 33.284 7.5 33.644 7.564C34.012 7.628 34.352 7.744 34.664 7.912C34.984 8.08 35.236 8.304 35.42 8.584C35.548 8.792 35.648 9.044 35.72 9.34C35.792 9.636 35.804 9.92 35.756 10.192C35.716 10.432 35.632 10.6 35.504 10.696C35.376 10.784 35.236 10.82 35.084 10.804C34.932 10.78 34.784 10.716 34.64 10.612C34.504 10.5 34.412 10.36 34.364 10.192C34.308 10.008 34.24 9.84 34.16 9.688C34.08 9.528 33.956 9.396 33.788 9.292C33.596 9.172 33.392 9.104 33.176 9.088C32.968 9.072 32.764 9.096 32.564 9.16C32.372 9.224 32.188 9.324 32.012 9.46C31.844 9.596 31.704 9.752 31.592 9.928C31.456 10.128 31.352 10.348 31.28 10.588C31.208 10.82 31.156 11.064 31.124 11.32C31.092 11.568 31.08 11.82 31.088 12.076C31.104 12.324 31.136 12.564 31.184 12.796C31.272 13.188 31.408 13.556 31.592 13.9C31.664 14.028 31.76 14.144 31.88 14.248C32.008 14.344 32.148 14.424 32.3 14.488C32.452 14.544 32.612 14.58 32.78 14.596C32.948 14.612 33.108 14.6 33.26 14.56C33.476 14.504 33.652 14.432 33.788 14.344C33.924 14.248 34.032 14.136 34.112 14.008C34.192 13.88 34.244 13.74 34.268 13.588C34.3 13.436 34.316 13.276 34.316 13.108V13.096C34.212 13.096 34.12 13.096 34.04 13.096C33.96 13.088 33.9 13.084 33.86 13.084C33.684 13.084 33.512 13.052 33.344 12.988C33.2 12.94 33.092 12.864 33.02 12.76C32.94 12.672 32.9 12.564 32.9 12.436C32.9 12.388 32.9 12.344 32.9 12.304C32.908 12.256 32.916 12.208 32.924 12.16C32.948 12.096 33 12.016 33.08 11.92C33.128 11.88 33.204 11.848 33.308 11.824C33.356 11.808 33.404 11.796 33.452 11.788C33.5 11.772 33.556 11.76 33.62 11.752C33.668 11.744 33.72 11.74 33.776 11.74C33.832 11.74 33.888 11.74 33.944 11.74H35.036C35.124 11.732 35.224 11.744 35.336 11.776C35.456 11.8 35.548 11.84 35.612 11.896C35.636 11.928 35.66 11.96 35.684 11.992C35.708 12.024 35.728 12.06 35.744 12.1C35.776 12.188 35.796 12.276 35.804 12.364C35.812 12.412 35.816 12.464 35.816 12.52C35.824 12.568 35.828 12.612 35.828 12.652V13.144ZM45.3605 7.984C45.3925 8.136 45.3925 8.296 45.3605 8.464C45.3445 8.544 45.3285 8.624 45.3125 8.704C45.3045 8.776 45.2925 8.852 45.2765 8.932L45.2645 8.98C45.1525 9.476 45.0245 10 44.8805 10.552C44.7445 11.096 44.6205 11.612 44.5085 12.1C44.4125 12.5 44.3125 12.94 44.2085 13.42C44.1045 13.9 43.9965 14.34 43.8845 14.74C43.8445 14.876 43.8005 15.012 43.7525 15.148C43.7125 15.284 43.6605 15.42 43.5965 15.556C43.5405 15.676 43.4725 15.784 43.3925 15.88C43.3205 15.968 43.2365 16.032 43.1405 16.072C43.0445 16.12 42.9405 16.136 42.8285 16.12C42.7245 16.112 42.6085 16.064 42.4805 15.976C42.2885 15.84 42.1445 15.652 42.0485 15.412C41.9605 15.172 41.8685 14.952 41.7725 14.752C41.7405 14.696 41.6925 14.572 41.6285 14.38C41.5645 14.188 41.4965 13.98 41.4245 13.756C41.3525 13.524 41.2805 13.304 41.2085 13.096C41.1445 12.88 41.0885 12.72 41.0405 12.616C40.9685 12.792 40.8965 12.992 40.8245 13.216C40.7525 13.44 40.6845 13.66 40.6205 13.876C40.5565 14.092 40.4965 14.288 40.4405 14.464C40.3925 14.632 40.3565 14.756 40.3325 14.836C40.2685 14.996 40.1965 15.172 40.1165 15.364C40.0445 15.556 39.9525 15.72 39.8405 15.856C39.7365 15.992 39.6085 16.08 39.4565 16.12C39.3045 16.168 39.1245 16.124 38.9165 15.988C38.7565 15.892 38.6445 15.756 38.5805 15.58C38.5405 15.468 38.5005 15.36 38.4605 15.256C38.4205 15.152 38.3885 15.044 38.3645 14.932L38.1245 14.032L37.6325 12.1C37.5685 11.852 37.5045 11.6 37.4405 11.344C37.3845 11.08 37.3165 10.808 37.2365 10.528C37.1965 10.392 37.1605 10.26 37.1285 10.132C37.1045 9.996 37.0765 9.852 37.0445 9.7C37.0205 9.54 36.9885 9.36 36.9485 9.16C36.9165 8.96 36.8765 8.728 36.8285 8.464C36.8125 8.376 36.8005 8.296 36.7925 8.224C36.7925 8.144 36.8005 8.064 36.8165 7.984C36.8325 7.864 36.8885 7.76 36.9845 7.672C37.0245 7.632 37.0725 7.6 37.1285 7.576C37.1845 7.552 37.2445 7.532 37.3085 7.516C37.4045 7.484 37.5045 7.468 37.6085 7.468C37.7045 7.468 37.8045 7.5 37.9085 7.564C37.9805 7.604 38.0365 7.656 38.0765 7.72L38.2205 7.972C38.2365 8.028 38.2525 8.08 38.2685 8.128C38.2845 8.168 38.3005 8.212 38.3165 8.26C38.3325 8.316 38.3445 8.368 38.3525 8.416C38.3605 8.456 38.3685 8.496 38.3765 8.536C38.4485 8.952 38.5365 9.356 38.6405 9.748C38.7445 10.14 38.8405 10.516 38.9285 10.876C38.9605 11.02 39.0005 11.2 39.0485 11.416C39.0965 11.624 39.1445 11.844 39.1925 12.076C39.2405 12.3 39.2885 12.516 39.3365 12.724C39.3845 12.932 39.4325 13.096 39.4805 13.216C39.5845 12.856 39.6885 12.496 39.7925 12.136C39.9045 11.776 40.0245 11.412 40.1525 11.044C40.2165 10.852 40.2805 10.68 40.3445 10.528C40.4165 10.368 40.4965 10.236 40.5845 10.132C40.6725 10.028 40.7725 9.96 40.8845 9.928C40.9965 9.896 41.1285 9.908 41.2805 9.964C41.4165 10.02 41.5365 10.14 41.6405 10.324C41.7445 10.508 41.8365 10.696 41.9165 10.888C41.9885 11.064 42.0565 11.252 42.1205 11.452C42.1925 11.644 42.2605 11.836 42.3245 12.028C42.3965 12.212 42.4645 12.388 42.5285 12.556C42.5925 12.724 42.6565 12.868 42.7205 12.988C42.7445 12.9 42.7725 12.788 42.8045 12.652C42.8365 12.516 42.8685 12.372 42.9005 12.22C42.9405 12.06 42.9765 11.904 43.0085 11.752C43.0405 11.6 43.0725 11.46 43.1045 11.332C43.2085 10.9 43.3165 10.468 43.4285 10.036C43.5405 9.596 43.6485 9.164 43.7525 8.74L43.8125 8.536C43.8285 8.496 43.8365 8.456 43.8365 8.416C43.8445 8.368 43.8565 8.316 43.8725 8.26C43.8885 8.212 43.9045 8.168 43.9205 8.128C43.9365 8.08 43.9525 8.028 43.9685 7.972C43.9845 7.932 44.0005 7.892 44.0165 7.852C44.0405 7.804 44.0685 7.76 44.1005 7.72C44.1245 7.68 44.1525 7.648 44.1845 7.624C44.2165 7.6 44.2485 7.58 44.2805 7.564C44.3925 7.5 44.4885 7.468 44.5685 7.468C44.6725 7.468 44.7725 7.484 44.8685 7.516C44.9965 7.54 45.1125 7.592 45.2165 7.672C45.2965 7.752 45.3445 7.856 45.3605 7.984ZM52.979 7.876C53.067 7.98 53.111 8.088 53.111 8.2C53.111 8.248 53.107 8.3 53.099 8.356C53.099 8.404 53.095 8.448 53.087 8.488C53.063 8.576 53.011 8.66 52.931 8.74C52.867 8.788 52.779 8.824 52.667 8.848C52.611 8.864 52.555 8.876 52.499 8.884C52.443 8.892 52.383 8.904 52.319 8.92C52.263 8.928 52.207 8.932 52.151 8.932C52.095 8.932 52.035 8.932 51.971 8.932H51.359C51.215 8.94 51.071 8.944 50.927 8.944C50.791 8.944 50.655 8.944 50.519 8.944C50.527 9.192 50.531 9.46 50.531 9.748C50.531 10.028 50.527 10.356 50.519 10.732C50.519 11.108 50.515 11.544 50.507 12.04C50.507 12.536 50.507 13.112 50.507 13.768V14.68C50.507 14.76 50.511 14.82 50.519 14.86C50.519 14.892 50.519 14.924 50.519 14.956C50.519 14.98 50.515 15.012 50.507 15.052C50.491 15.124 50.479 15.208 50.471 15.304C50.471 15.344 50.467 15.384 50.459 15.424C50.451 15.456 50.439 15.492 50.423 15.532C50.391 15.564 50.375 15.588 50.375 15.604L50.339 15.676C50.299 15.756 50.223 15.832 50.111 15.904C49.935 15.992 49.739 16.012 49.523 15.964C49.387 15.948 49.283 15.912 49.211 15.856C49.139 15.784 49.087 15.712 49.055 15.64C49.007 15.552 48.979 15.468 48.971 15.388C48.947 15.316 48.935 15.24 48.935 15.16V8.992C48.887 8.992 48.787 8.992 48.635 8.992C48.483 8.992 48.319 8.992 48.143 8.992C47.975 8.984 47.815 8.976 47.663 8.968C47.511 8.96 47.407 8.952 47.351 8.944C47.303 8.936 47.227 8.924 47.123 8.908C47.027 8.892 46.947 8.876 46.883 8.86C46.715 8.812 46.583 8.736 46.487 8.632C46.399 8.528 46.355 8.412 46.355 8.284C46.355 8.236 46.355 8.188 46.355 8.14C46.355 8.092 46.363 8.048 46.379 8.008C46.403 7.912 46.467 7.832 46.571 7.768C46.603 7.744 46.651 7.716 46.715 7.684C46.787 7.644 46.855 7.616 46.919 7.6C47.015 7.568 47.135 7.544 47.279 7.528C47.343 7.52 47.407 7.516 47.471 7.516C47.535 7.516 47.603 7.516 47.675 7.516C47.955 7.516 48.219 7.516 48.467 7.516C48.723 7.516 48.991 7.512 49.271 7.504C49.735 7.496 50.195 7.496 50.651 7.504C51.115 7.504 51.575 7.512 52.031 7.528C52.135 7.536 52.235 7.548 52.331 7.564C52.427 7.58 52.523 7.608 52.619 7.648C52.691 7.672 52.759 7.704 52.823 7.744C52.887 7.776 52.939 7.82 52.979 7.876ZM55.5419 16C55.5419 16.208 55.4659 16.384 55.3139 16.528C55.1699 16.68 54.9939 16.756 54.7859 16.756C54.5779 16.756 54.3979 16.68 54.2459 16.528C54.1019 16.384 54.0299 16.208 54.0299 16C54.0299 15.792 54.1019 15.612 54.2459 15.46C54.3979 15.308 54.5779 15.232 54.7859 15.232C54.9939 15.232 55.1699 15.308 55.3139 15.46C55.4659 15.612 55.5419 15.792 55.5419 16ZM61.6643 8.26C61.9683 8.54 62.1923 8.876 62.3363 9.268C62.4803 9.652 62.5363 10.036 62.5043 10.42C62.4723 10.788 62.3563 11.128 62.1563 11.44C61.9563 11.744 61.6523 11.976 61.2443 12.136C60.9243 12.272 60.6083 12.368 60.2963 12.424C59.9843 12.48 59.6403 12.524 59.2643 12.556C59.0963 12.572 58.9523 12.584 58.8323 12.592C58.7203 12.592 58.5883 12.596 58.4363 12.604C58.4043 12.604 58.3483 12.604 58.2683 12.604C58.1963 12.604 58.1443 12.608 58.1123 12.616V15.1C58.0883 15.252 58.0563 15.408 58.0163 15.568C57.9843 15.728 57.8923 15.852 57.7403 15.94C57.6523 15.988 57.5443 16.016 57.4163 16.024C57.2883 16.032 57.1723 16.028 57.0683 16.012C56.9563 15.996 56.8603 15.968 56.7803 15.928C56.7083 15.88 56.6483 15.8 56.6003 15.688C56.5683 15.616 56.5363 15.536 56.5043 15.448C56.4803 15.352 56.4683 15.236 56.4683 15.1V8.464C56.4683 8.408 56.4723 8.356 56.4803 8.308C56.4883 8.26 56.4963 8.212 56.5043 8.164C56.5203 8.124 56.5323 8.08 56.5403 8.032C56.5483 7.984 56.5603 7.94 56.5763 7.9C56.5923 7.86 56.6083 7.824 56.6243 7.792C56.6483 7.76 56.6763 7.732 56.7083 7.708C56.7483 7.668 56.8083 7.632 56.8883 7.6C56.9763 7.568 57.1043 7.552 57.2723 7.552H57.2963C57.5443 7.536 57.8203 7.524 58.1243 7.516C58.4283 7.5 58.6803 7.504 58.8803 7.528C58.9923 7.544 59.0963 7.556 59.1923 7.564C59.2883 7.564 59.3803 7.568 59.4683 7.576C59.5643 7.584 59.6603 7.592 59.7563 7.6C59.8523 7.608 59.9483 7.62 60.0443 7.636C60.1243 7.652 60.1963 7.664 60.2603 7.672C60.3323 7.68 60.4043 7.692 60.4763 7.708C60.5403 7.724 60.6083 7.74 60.6803 7.756C60.7603 7.772 60.8323 7.8 60.8963 7.84C61.0643 7.888 61.2043 7.948 61.3163 8.02C61.4283 8.092 61.5443 8.172 61.6643 8.26ZM60.9443 10.24C60.9523 10.048 60.9123 9.88 60.8243 9.736C60.7443 9.592 60.6283 9.472 60.4763 9.376C60.3243 9.28 60.1523 9.204 59.9603 9.148C59.7683 9.092 59.5763 9.052 59.3843 9.028C59.3363 9.028 59.2683 9.028 59.1803 9.028C59.1003 9.02 59.0123 9.016 58.9163 9.016C58.8203 9.008 58.7283 9.004 58.6403 9.004C58.5603 8.996 58.4963 8.992 58.4483 8.992C58.4083 8.984 58.3603 8.98 58.3043 8.98C58.2483 8.98 58.1843 8.98 58.1123 8.98C58.1203 9.228 58.1243 9.468 58.1243 9.7C58.1243 9.924 58.1243 10.168 58.1243 10.432C58.1163 10.576 58.1123 10.72 58.1123 10.864C58.1123 11.008 58.1123 11.148 58.1123 11.284L58.8563 11.272C59.0483 11.272 59.2603 11.26 59.4923 11.236C59.7243 11.212 59.9443 11.164 60.1523 11.092C60.3603 11.02 60.5363 10.916 60.6803 10.78C60.8323 10.644 60.9203 10.464 60.9443 10.24ZM69.6798 15.472C69.6878 15.552 69.6798 15.628 69.6558 15.7C69.6398 15.748 69.6158 15.788 69.5838 15.82C69.5598 15.852 69.5278 15.884 69.4878 15.916C69.4158 15.964 69.3278 16.008 69.2238 16.048C69.1598 16.064 69.0958 16.076 69.0318 16.084C68.9758 16.1 68.9158 16.1 68.8518 16.084C68.7238 16.076 68.6118 16.028 68.5158 15.94C68.3798 15.828 68.2678 15.704 68.1798 15.568C68.1398 15.504 68.0958 15.432 68.0478 15.352C67.9998 15.272 67.9558 15.188 67.9158 15.1L66.5838 12.568C66.5198 12.568 66.4558 12.572 66.3918 12.58C66.3278 12.58 66.2638 12.584 66.1998 12.592C66.0318 12.608 65.8718 12.612 65.7198 12.604C65.5758 12.596 65.4238 12.596 65.2638 12.604H65.0358V14.776C65.0358 14.84 65.0318 14.9 65.0238 14.956C65.0238 15.012 65.0238 15.072 65.0238 15.136C65.0238 15.176 65.0198 15.228 65.0118 15.292C65.0118 15.356 65.0078 15.416 64.9998 15.472C64.9838 15.56 64.9478 15.652 64.8918 15.748C64.8358 15.836 64.7598 15.912 64.6638 15.976C64.4958 16.08 64.2918 16.108 64.0518 16.06C63.9478 16.036 63.8478 15.996 63.7518 15.94C63.7198 15.916 63.6918 15.888 63.6678 15.856C63.6438 15.816 63.6238 15.776 63.6078 15.736C63.5918 15.696 63.5758 15.656 63.5598 15.616C63.5518 15.568 63.5398 15.524 63.5238 15.484C63.4998 15.404 63.4878 15.328 63.4878 15.256V8.44C63.4878 8.392 63.4878 8.344 63.4878 8.296C63.4958 8.24 63.5038 8.192 63.5118 8.152C63.5198 8.064 63.5478 7.976 63.5958 7.888C63.6198 7.792 63.6598 7.724 63.7158 7.684C63.7638 7.636 63.8358 7.596 63.9318 7.564C64.0358 7.524 64.1838 7.508 64.3758 7.516C64.7358 7.524 65.0918 7.528 65.4438 7.528C65.7958 7.528 66.1478 7.536 66.4998 7.552C66.7318 7.568 66.9758 7.596 67.2318 7.636C67.4958 7.668 67.7398 7.728 67.9638 7.816C68.1078 7.872 68.2398 7.928 68.3598 7.984C68.5118 8.072 68.6318 8.156 68.7198 8.236C68.9998 8.492 69.2118 8.8 69.3558 9.16C69.4998 9.52 69.5718 9.884 69.5718 10.252C69.5718 10.684 69.4678 11.08 69.2598 11.44C69.0598 11.8 68.7358 12.068 68.2878 12.244C68.2718 12.26 68.2478 12.272 68.2158 12.28C68.1918 12.28 68.1718 12.284 68.1558 12.292L69.2598 14.512L69.3678 14.704C69.3838 14.736 69.4038 14.772 69.4278 14.812C69.4518 14.852 69.4718 14.892 69.4878 14.932C69.5118 14.972 69.5318 15.016 69.5478 15.064C69.5718 15.112 69.5958 15.156 69.6198 15.196C69.6438 15.308 69.6638 15.4 69.6798 15.472ZM66.6798 11.2C66.8238 11.2 66.9598 11.176 67.0878 11.128C67.2238 11.072 67.3438 11 67.4478 10.912C67.5598 10.824 67.6518 10.724 67.7238 10.612C67.7958 10.492 67.8358 10.364 67.8438 10.228C67.8758 9.828 67.7718 9.532 67.5318 9.34C67.2918 9.14 66.9758 9.032 66.5838 9.016C66.3518 9 66.0958 8.992 65.8158 8.992C65.5438 8.992 65.2838 8.992 65.0358 8.992C65.0438 9.32 65.0438 9.656 65.0358 10C65.0358 10.336 65.0358 10.736 65.0358 11.2H66.6798ZM78.052 15.184C78.06 15.232 78.064 15.28 78.064 15.328C78.072 15.368 78.076 15.416 78.076 15.472C78.076 15.568 78.048 15.656 77.992 15.736C77.968 15.776 77.936 15.816 77.896 15.856C77.856 15.888 77.808 15.916 77.752 15.94C77.552 16.052 77.34 16.092 77.116 16.06C77.004 16.028 76.904 15.976 76.816 15.904C76.8 15.888 76.788 15.88 76.78 15.88C76.772 15.872 76.764 15.86 76.756 15.844C76.748 15.836 76.74 15.828 76.732 15.82C76.724 15.804 76.712 15.792 76.696 15.784C76.656 15.744 76.624 15.708 76.6 15.676C76.576 15.636 76.552 15.596 76.528 15.556C76.512 15.516 76.492 15.48 76.468 15.448C76.452 15.408 76.432 15.368 76.408 15.328C76.392 15.296 76.376 15.268 76.36 15.244C76.344 15.212 76.332 15.18 76.324 15.148C76.292 15.076 76.272 15.012 76.264 14.956L76.012 14.368C75.46 14.368 74.908 14.372 74.356 14.38C73.812 14.38 73.264 14.376 72.712 14.368L72.46 14.956C72.444 14.988 72.432 15.02 72.424 15.052C72.424 15.084 72.416 15.116 72.4 15.148C72.384 15.18 72.368 15.212 72.352 15.244C72.344 15.268 72.332 15.296 72.316 15.328C72.292 15.368 72.268 15.408 72.244 15.448C72.228 15.48 72.208 15.516 72.184 15.556C72.168 15.596 72.148 15.636 72.124 15.676C72.1 15.708 72.068 15.744 72.028 15.784C72.012 15.792 72 15.804 71.992 15.82C71.984 15.828 71.976 15.836 71.968 15.844C71.96 15.86 71.952 15.872 71.944 15.88C71.936 15.88 71.924 15.888 71.908 15.904C71.82 15.976 71.72 16.028 71.608 16.06C71.384 16.092 71.172 16.052 70.972 15.94C70.916 15.916 70.868 15.888 70.828 15.856C70.788 15.816 70.756 15.776 70.732 15.736C70.676 15.656 70.648 15.568 70.648 15.472C70.648 15.416 70.648 15.368 70.648 15.328C70.656 15.28 70.664 15.232 70.672 15.184C70.688 15.112 70.708 15.04 70.732 14.968C70.756 14.896 70.768 14.86 70.768 14.86L73.264 8.716L73.336 8.524C73.352 8.476 73.372 8.432 73.396 8.392C73.42 8.352 73.44 8.304 73.456 8.248C73.496 8.144 73.54 8.052 73.588 7.972C73.612 7.924 73.64 7.88 73.672 7.84C73.704 7.8 73.736 7.76 73.768 7.72C73.816 7.656 73.884 7.604 73.972 7.564C74.084 7.524 74.212 7.504 74.356 7.504C74.508 7.504 74.64 7.524 74.752 7.564C74.84 7.604 74.908 7.656 74.956 7.72C75.012 7.792 75.072 7.876 75.136 7.972C75.184 8.052 75.228 8.144 75.268 8.248C75.284 8.304 75.304 8.352 75.328 8.392C75.352 8.432 75.372 8.476 75.388 8.524L75.46 8.716L77.956 14.86C77.956 14.86 77.968 14.896 77.992 14.968C78.016 15.04 78.036 15.112 78.052 15.184ZM75.208 12.244C75.104 12.012 74.996 11.772 74.884 11.524C74.78 11.276 74.668 11.024 74.548 10.768C74.516 10.696 74.484 10.624 74.452 10.552C74.42 10.472 74.388 10.396 74.356 10.324C74.332 10.396 74.304 10.472 74.272 10.552C74.24 10.624 74.208 10.696 74.176 10.768C74.056 11.024 73.94 11.276 73.828 11.524C73.724 11.772 73.62 12.012 73.516 12.244L73.3 12.772H75.424L75.208 12.244ZM84.9353 8.08C84.9753 8.264 84.9793 8.452 84.9473 8.644C84.9233 8.828 84.8873 8.996 84.8393 9.148C84.7433 9.46 84.6313 9.808 84.5033 10.192C84.3753 10.576 84.2473 10.96 84.1193 11.344C83.9913 11.728 83.8673 12.092 83.7473 12.436C83.6273 12.772 83.5273 13.052 83.4473 13.276C83.3673 13.484 83.2833 13.72 83.1953 13.984C83.1073 14.248 82.9993 14.508 82.8713 14.764C82.7513 15.012 82.6073 15.24 82.4393 15.448C82.2793 15.656 82.0833 15.808 81.8513 15.904C81.6193 16 81.4073 16.024 81.2153 15.976C81.0233 15.92 80.8513 15.824 80.6993 15.688C80.5473 15.544 80.4073 15.368 80.2793 15.16C80.1593 14.944 80.0513 14.724 79.9553 14.5C79.8593 14.276 79.7713 14.06 79.6913 13.852C79.6113 13.636 79.5393 13.452 79.4753 13.3C79.2273 12.756 79.0033 12.18 78.8033 11.572C78.6033 10.964 78.3993 10.384 78.1913 9.832C78.1353 9.672 78.0713 9.48 77.9993 9.256C77.9273 9.024 77.8793 8.796 77.8553 8.572C77.8393 8.34 77.8673 8.132 77.9393 7.948C78.0113 7.756 78.1633 7.624 78.3953 7.552C78.4433 7.536 78.4913 7.524 78.5393 7.516C78.5953 7.5 78.6473 7.488 78.6953 7.48C78.7513 7.48 78.8033 7.484 78.8513 7.492C78.8993 7.5 78.9513 7.52 79.0073 7.552C79.0473 7.568 79.0873 7.588 79.1273 7.612C79.1673 7.628 79.2033 7.652 79.2353 7.684C79.2673 7.724 79.2953 7.764 79.3193 7.804C79.3513 7.844 79.3833 7.884 79.4153 7.924C79.4393 7.98 79.4593 8.032 79.4753 8.08C79.4993 8.12 79.5193 8.16 79.5353 8.2C79.5513 8.256 79.5713 8.308 79.5953 8.356C79.6193 8.396 79.6393 8.436 79.6553 8.476L79.7273 8.68L81.4553 13.612L83.1593 8.692L83.2433 8.488C83.2593 8.448 83.2753 8.408 83.2913 8.368C83.3073 8.32 83.3233 8.268 83.3393 8.212C83.3553 8.172 83.3713 8.132 83.3873 8.092C83.4113 8.044 83.4393 7.996 83.4713 7.948C83.4953 7.908 83.5193 7.868 83.5433 7.828C83.5753 7.78 83.6073 7.736 83.6393 7.696C83.6633 7.664 83.6913 7.636 83.7233 7.612C83.7633 7.588 83.7993 7.568 83.8313 7.552C83.8953 7.52 83.9513 7.5 83.9993 7.492C84.0553 7.484 84.1033 7.48 84.1433 7.48C84.1913 7.488 84.2393 7.5 84.2873 7.516C84.3433 7.524 84.3953 7.536 84.4433 7.552C84.5953 7.592 84.7073 7.66 84.7793 7.756C84.8593 7.852 84.9113 7.96 84.9353 8.08Z" fill="white"/>
<path d="M107.712 15.088C107.704 15.224 107.684 15.368 107.652 15.52C107.628 15.672 107.552 15.796 107.424 15.892C107.328 15.972 107.22 16.02 107.1 16.036C106.98 16.052 106.86 16.044 106.74 16.012C106.628 15.988 106.52 15.948 106.416 15.892C106.312 15.828 106.228 15.752 106.164 15.664C105.892 15.328 105.64 14.984 105.408 14.632C105.184 14.272 104.956 13.912 104.724 13.552L103.716 12.028C103.58 11.812 103.436 11.572 103.284 11.308C103.132 11.036 102.976 10.784 102.816 10.552L102.78 15.136V15.244C102.78 15.372 102.756 15.5 102.708 15.628C102.668 15.748 102.596 15.852 102.492 15.94C102.412 16.004 102.308 16.048 102.18 16.072C101.98 16.112 101.812 16.1 101.676 16.036C101.548 15.972 101.444 15.884 101.364 15.772C101.292 15.66 101.24 15.532 101.208 15.388C101.184 15.236 101.18 15.088 101.196 14.944V14.74L101.22 13.804L101.232 12.064C101.24 11.808 101.244 11.548 101.244 11.284C101.244 11.012 101.244 10.736 101.244 10.456C101.236 10.112 101.236 9.748 101.244 9.364C101.26 8.98 101.276 8.62 101.292 8.284C101.308 8.1 101.352 7.944 101.424 7.816C101.456 7.704 101.54 7.608 101.676 7.528C101.764 7.472 101.876 7.436 102.012 7.42C102.156 7.404 102.28 7.408 102.384 7.432C102.424 7.448 102.464 7.468 102.504 7.492C102.544 7.508 102.584 7.528 102.624 7.552C102.664 7.584 102.7 7.616 102.732 7.648C102.772 7.68 102.808 7.716 102.84 7.756C102.88 7.796 102.916 7.84 102.948 7.888C102.98 7.928 103.012 7.968 103.044 8.008C103.068 8.056 103.092 8.1 103.116 8.14C103.14 8.18 103.168 8.22 103.2 8.26L103.332 8.452L106.104 12.82V12.028C106.104 11.772 106.1 11.512 106.092 11.248C106.092 10.976 106.088 10.696 106.08 10.408C106.08 10.072 106.08 9.712 106.08 9.328C106.088 8.944 106.1 8.584 106.116 8.248C106.116 8.112 106.156 7.956 106.236 7.78C106.276 7.676 106.344 7.592 106.44 7.528C106.536 7.464 106.644 7.42 106.764 7.396C106.884 7.372 107.004 7.372 107.124 7.396C107.244 7.42 107.348 7.468 107.436 7.54C107.46 7.564 107.484 7.592 107.508 7.624C107.532 7.656 107.552 7.692 107.568 7.732C107.608 7.836 107.632 7.928 107.64 8.008C107.664 8.12 107.676 8.22 107.676 8.308C107.676 9.308 107.676 10.328 107.676 11.368C107.684 12.408 107.692 13.428 107.7 14.428C107.7 14.54 107.704 14.652 107.712 14.764C107.72 14.868 107.72 14.976 107.712 15.088Z" fill="white"/>
<rect x="86.1481" y="7.2" width="5.80741" height="1.17333" rx="0.586667" fill="white"/>
<rect x="86.1481" y="9.54666" width="3.31852" height="1.17333" rx="0.586667" fill="white"/>
<rect x="86.1481" y="11.8933" width="5.80741" height="1.17333" rx="0.586667" fill="white"/>
<rect x="93.4074" y="10.2" width="5.80741" height="1.17333" rx="0.586667" fill="white"/>
<rect x="93.4074" y="12.5467" width="3.31852" height="1.17333" rx="0.586667" fill="white"/>
<rect x="93.4074" y="14.8933" width="5.80741" height="1.17333" rx="0.586667" fill="white"/>
<ellipse cx="14.7759" cy="13.7264" rx="10.7759" ry="8.72641" fill="white"/>
<ellipse cx="14.7759" cy="13.7264" rx="6.46552" ry="5.23585" fill="black"/>
<path d="M21.2414 23.5L4 8.14151L7.87931 5.34906L24.6897 20.7076L21.2414 23.5Z" fill="black"/>
<path d="M23.3966 13.3774H18.6552V15.4717L23.3966 19.3113V13.3774Z" fill="white"/>
<path d="M23.3966 6.39622L19.5172 10.5849L21.2414 13.3774H23.3966V19.3113L29 15.1226L23.3966 6.39622Z" fill="black"/>
</svg>
